<svg width="1920" height="626" viewBox="0 0 1920 626" fill="none" xmlns="http://www.w3.org/2000/svg">
<g clip-path="url(#clip0_1_1775)">
<mask id="mask0_1_1775" style="mask-type:luminance" maskUnits="userSpaceOnUse" x="-320" y="0" width="2560" height="626">
<path d="M2240 0H-320V626H2240V0Z" fill="white"/>
</mask>
<g mask="url(#mask0_1_1775)">
<path d="M2240 742.024C1961.4 521.424 1832.7 442.024 1602 582.924C1340.1 414.924 1241.1 471.424 960 646.624C819.5 509.324 765.6 452.324 700.5 538.224C540.2 351.524 452.1 290.424 317.8 453.024C303.243 470.609 283.935 483.636 262.18 490.551C240.424 497.466 217.138 497.977 195.1 492.024C-7.10002 437.124 -201.4 667.024 -320 742.024H2240Z" fill="#5865F2"/>
<path d="M2046.4 595.424C2042.4 591.924 2036.2 590.124 2028.8 590.124C2022.52 590.221 2016.29 591.232 2010.3 593.124L2006.3 594.424C2006.42 591.523 2006.08 588.621 2005.3 585.824C2003.1 577.024 1997.3 569.824 1988.6 564.924C1975.6 557.524 1957.3 556.324 1939.8 561.624C1936.38 562.637 1933.03 563.908 1929.8 565.424C1928.3 560.558 1926.22 555.891 1923.6 551.524C1907.9 525.124 1875.3 509.624 1850.9 517.024C1840.5 520.124 1832.7 527.224 1829 536.824C1824.2 549.224 1826.3 564.524 1834.9 578.924C1847.6 600.424 1872 615.224 1894.4 615.324C1894.6 616.624 1894.8 617.924 1895.1 619.124C1895.75 621.516 1896.65 623.829 1897.8 626.024H1900.1C1898.75 623.713 1897.74 621.221 1897.1 618.624C1896.73 617.179 1896.46 615.708 1896.3 614.224C1896.28 613.977 1896.16 613.747 1895.97 613.581C1895.79 613.415 1895.55 613.323 1895.3 613.324H1894.6C1872.8 613.324 1849 598.824 1836.6 577.924C1828.4 564.024 1826.3 549.324 1830.8 537.524C1834.3 528.524 1841.7 521.924 1851.5 518.924C1875 511.824 1906.6 526.924 1921.9 552.524C1924.6 557.109 1926.72 562.014 1928.2 567.124C1928.32 567.391 1928.53 567.604 1928.8 567.724C1929.06 567.825 1929.34 567.825 1929.6 567.724C1933.08 566.032 1936.69 564.628 1940.4 563.524C1957.4 558.424 1975 559.524 1987.6 566.624C1995.8 571.324 2001.3 578.124 2003.4 586.324C2004.22 589.419 2004.49 592.635 2004.2 595.824C2004.21 596.165 2004.35 596.488 2004.6 596.724C2004.74 596.839 2004.91 596.909 2005.08 596.927C2005.26 596.945 2005.44 596.909 2005.6 596.824L2010.9 595.024C2025.5 590.624 2038.6 591.324 2045.1 596.924C2048.6 599.824 2050 603.924 2049.3 608.724C2048.6 613.524 2045.3 620.324 2040.2 626.024H2042.8C2047.5 620.424 2050.6 614.524 2051.3 609.024C2052 603.524 2050.4 598.724 2046.4 595.424Z" fill="#808AFF"/>
<path d="M495.501 192.3C517.601 181.1 533.201 189.8 533.201 189.8C544.101 186.4 553.801 188.8 558.701 192.6C561.801 195.1 554.901 194.6 539.301 194.6H496.001C495.683 194.6 495.377 194.474 495.152 194.249C494.927 194.024 494.801 193.718 494.801 193.4C494.799 193.169 494.864 192.942 494.988 192.747C495.113 192.552 495.29 192.396 495.501 192.3Z" fill="#5865F2"/>
<path d="M93.0011 210.1C87.0021 210.103 81.0941 211.56 75.7821 214.346C70.4701 217.133 65.9121 221.166 62.5011 226.1C49.1521 220.019 34.3391 217.898 19.8201 219.99C5.30207 222.082 -8.30993 228.298 -19.3989 237.9H128.901C126.825 229.953 122.178 222.916 115.684 217.888C109.19 212.859 101.214 210.121 93.0011 210.1Z" fill="#5865F2"/>
<path d="M1845.6 283.5C1848.11 283.527 1850.6 282.998 1852.88 281.951C1855.16 280.903 1857.18 279.363 1858.8 277.441C1860.41 275.52 1861.58 273.264 1862.22 270.836C1862.86 268.408 1862.96 265.869 1862.5 263.4C1857.71 237.556 1844.63 213.974 1825.26 196.214C1805.88 178.454 1781.25 167.481 1755.09 164.952C1728.92 162.422 1702.65 168.474 1680.23 182.193C1657.81 195.912 1640.46 216.553 1630.8 241C1621.86 239.071 1612.74 238.098 1603.6 238.1C1586.03 238.071 1568.64 241.712 1552.56 248.789C1536.48 255.866 1522.05 266.224 1510.2 279.2C1509.88 279.573 1509.67 280.029 1509.6 280.516C1509.52 281.003 1509.59 281.501 1509.79 281.952C1509.99 282.402 1510.31 282.787 1510.72 283.061C1511.13 283.335 1511.61 283.487 1512.1 283.5H1845.6Z" fill="#5865F2"/>
<path d="M1400.6 625.4H1398.6C1399.4 602.8 1395.2 588.1 1385.7 580.6C1376.2 573.1 1360.3 572.6 1338 579.5C1337.73 579.569 1337.44 579.533 1337.2 579.4C1336.95 579.237 1336.77 578.987 1336.7 578.7C1336.08 574.68 1334.43 570.889 1331.9 567.698C1329.38 564.508 1326.07 562.028 1322.3 560.5C1312.7 556.6 1300.8 558.8 1290.6 566.3C1265.8 584.4 1268.5 616.8 1268.5 617.1C1268.5 617.306 1268.45 617.509 1268.34 617.686C1268.24 617.863 1268.08 618.006 1267.9 618.1C1267.72 618.196 1267.52 618.228 1267.32 618.192C1267.12 618.155 1266.93 618.053 1266.8 617.9C1253.9 606.4 1244.9 601.9 1237.6 603.2C1230.3 604.5 1223.7 612.3 1216.2 625.4H1213.9C1222 611.2 1228.6 602.7 1237.2 601.2C1245.8 599.7 1253.9 604.1 1266.4 614.9C1266.3 606.9 1267.7 580.6 1289.4 564.7C1300.2 556.8 1312.8 554.5 1323 558.7C1326.93 560.233 1330.41 562.731 1333.12 565.965C1335.83 569.198 1337.68 573.062 1338.5 577.2C1360.9 570.5 1376.7 571.1 1386.9 579.1C1397.1 587.1 1401.4 602.1 1400.6 625.4Z" fill="#808AFF"/>
<path d="M276.5 275.9C274.931 274.918 273.599 273.602 272.596 272.047C271.594 270.491 270.946 268.734 270.7 266.9L269.7 260.5C269.676 260.359 269.602 260.231 269.492 260.139C269.382 260.047 269.243 259.998 269.1 260C268.956 259.998 268.817 260.047 268.707 260.139C268.597 260.231 268.523 260.359 268.5 260.5L267.5 266.9C267.234 268.728 266.578 270.478 265.577 272.03C264.577 273.583 263.254 274.903 261.7 275.9L260.9 276.4C260.804 276.442 260.723 276.512 260.669 276.602C260.615 276.692 260.591 276.796 260.6 276.9C260.591 277.004 260.615 277.109 260.669 277.198C260.723 277.288 260.804 277.359 260.9 277.4L261.7 277.9C263.249 278.928 264.565 280.268 265.564 281.836C266.563 283.403 267.222 285.162 267.5 287L268.5 293.3C268.523 293.441 268.597 293.569 268.707 293.661C268.817 293.753 268.956 293.802 269.1 293.8C269.243 293.802 269.382 293.753 269.492 293.661C269.602 293.569 269.676 293.441 269.7 293.3L270.7 287C270.958 285.157 271.61 283.39 272.611 281.82C273.611 280.25 274.938 278.913 276.5 277.9L277.3 277.4C277.396 277.359 277.476 277.288 277.53 277.198C277.584 277.109 277.608 277.004 277.6 276.9C277.608 276.796 277.584 276.692 277.53 276.602C277.476 276.512 277.396 276.442 277.3 276.4L276.5 275.9Z" fill="#91FFAD"/>
<path d="M1372.1 177.1C1369.45 175.385 1367.2 173.124 1365.49 170.468C1363.78 167.813 1362.66 164.823 1362.2 161.7L1360.6 150.9C1360.54 150.653 1360.4 150.432 1360.2 150.27C1360 150.108 1359.75 150.013 1359.5 150C1359.24 149.996 1358.99 150.084 1358.78 150.249C1358.58 150.413 1358.45 150.644 1358.4 150.9L1356.8 161.7C1356.32 164.83 1355.18 167.822 1353.46 170.477C1351.73 173.132 1349.46 175.39 1346.8 177.1L1345.4 178C1345.25 178.104 1345.13 178.238 1345.05 178.394C1344.96 178.549 1344.91 178.722 1344.9 178.9C1344.9 179.08 1344.95 179.255 1345.04 179.412C1345.12 179.569 1345.25 179.702 1345.4 179.8L1346.8 180.7C1349.47 182.431 1351.74 184.707 1353.46 187.378C1355.18 190.05 1356.32 193.057 1356.8 196.2L1358.4 207C1358.45 207.256 1358.58 207.487 1358.78 207.652C1358.99 207.816 1359.24 207.904 1359.5 207.9C1359.75 207.887 1360 207.792 1360.2 207.631C1360.4 207.469 1360.54 207.248 1360.6 207L1362.2 196.2C1362.66 193.063 1363.78 190.059 1365.49 187.387C1367.19 184.715 1369.45 182.436 1372.1 180.7L1373.6 179.8C1373.74 179.697 1373.85 179.561 1373.92 179.403C1373.99 179.245 1374.02 179.072 1374 178.9C1374.01 178.729 1373.98 178.559 1373.91 178.403C1373.84 178.247 1373.73 178.109 1373.6 178L1372.1 177.1Z" fill="#3F99F2"/>
<path d="M1863.7 410.1C1861.55 408.705 1859.73 406.868 1858.35 404.713C1856.97 402.557 1856.07 400.133 1855.7 397.6L1854.3 388.9C1854.3 388.688 1854.22 388.484 1854.07 388.334C1853.92 388.184 1853.71 388.1 1853.5 388.1C1853.28 388.099 1853.06 388.18 1852.9 388.327C1852.73 388.475 1852.62 388.679 1852.6 388.9L1851.3 397.6C1850.91 400.139 1849.99 402.567 1848.6 404.722C1847.2 406.877 1845.36 408.71 1843.2 410.1L1842.1 410.8C1841.99 410.883 1841.89 410.988 1841.83 411.108C1841.76 411.229 1841.71 411.362 1841.7 411.5C1841.7 411.642 1841.73 411.781 1841.81 411.904C1841.88 412.027 1841.98 412.129 1842.1 412.2L1843.2 412.9C1845.35 414.299 1847.18 416.135 1848.58 418.289C1849.97 420.442 1850.9 422.865 1851.3 425.4L1852.6 434.1C1852.62 434.321 1852.73 434.525 1852.9 434.673C1853.06 434.821 1853.28 434.902 1853.5 434.9C1853.71 434.9 1853.92 434.816 1854.07 434.666C1854.22 434.516 1854.3 434.312 1854.3 434.1L1855.7 425.4C1856.08 422.872 1856.99 420.451 1858.37 418.298C1859.75 416.144 1861.56 414.305 1863.7 412.9L1864.8 412.2C1864.93 412.139 1865.04 412.039 1865.11 411.913C1865.18 411.788 1865.21 411.644 1865.2 411.5C1865.2 411.358 1865.16 411.219 1865.09 411.096C1865.02 410.973 1864.92 410.871 1864.8 410.8L1863.7 410.1Z" fill="#404EED"/>
<path d="M580.9 413.7C580.087 413.183 579.397 412.494 578.879 411.682C578.361 410.871 578.026 409.955 577.9 409L577.4 405.8C577.4 405.721 577.368 405.644 577.312 405.588C577.256 405.532 577.179 405.5 577.1 405.5C577.02 405.5 576.944 405.532 576.888 405.588C576.831 405.644 576.8 405.721 576.8 405.8L576.3 409C576.173 409.955 575.839 410.871 575.32 411.682C574.802 412.494 574.112 413.183 573.3 413.7L572.8 414C572.7 414 572.7 414.2 572.7 414.3C572.695 414.354 572.702 414.409 572.719 414.46C572.736 414.512 572.763 414.56 572.8 414.6L573.3 414.8C574.091 415.341 574.765 416.036 575.28 416.843C575.796 417.651 576.143 418.555 576.3 419.5L576.8 422.8C576.8 422.88 576.831 422.956 576.888 423.012C576.944 423.068 577.02 423.1 577.1 423.1C577.179 423.1 577.256 423.068 577.312 423.012C577.368 422.956 577.4 422.88 577.4 422.8L577.9 419.5C578.057 418.555 578.403 417.651 578.919 416.843C579.435 416.036 580.108 415.341 580.9 414.8L581.4 414.6C581.436 414.56 581.463 414.512 581.481 414.46C581.498 414.409 581.504 414.354 581.5 414.3C581.5 414.2 581.5 414 581.4 414L580.9 413.7Z" fill="#FF78B9"/>
<path d="M623.1 542C622.685 541.753 622.328 541.419 622.052 541.023C621.776 540.626 621.588 540.175 621.5 539.7L621.3 538H621L620.7 539.7C620.629 540.169 620.459 540.617 620.2 541.014C619.941 541.411 619.6 541.747 619.2 542L619 542.2C618.973 542.2 618.948 542.211 618.929 542.23C618.91 542.248 618.9 542.274 618.9 542.3C618.9 542.327 618.91 542.352 618.929 542.371C618.948 542.39 618.973 542.4 619 542.4L619.2 542.6C619.6 542.853 619.941 543.19 620.2 543.587C620.459 543.984 620.629 544.432 620.7 544.9L621 546.6H621.3L621.5 544.9C621.588 544.425 621.776 543.974 622.052 543.578C622.328 543.181 622.685 542.848 623.1 542.6L623.3 542.4L623.1 542Z" fill="#FFC619"/>
<path d="M1045.8 532.6C1044.9 531.993 1044.14 531.21 1043.56 530.299C1042.97 529.388 1042.58 528.368 1042.4 527.3L1041.9 523.7C1041.9 523.5 1041.7 523.4 1041.5 523.4C1041.46 523.4 1041.42 523.408 1041.38 523.423C1041.35 523.438 1041.32 523.46 1041.29 523.488C1041.26 523.516 1041.24 523.549 1041.22 523.585C1041.21 523.622 1041.2 523.661 1041.2 523.7L1040.6 527.3C1040.46 528.369 1040.1 529.395 1039.53 530.31C1038.96 531.224 1038.2 532.006 1037.3 532.6L1036.8 532.9C1036.7 532.9 1036.6 533 1036.6 533.2C1036.6 533.3 1036.7 533.4 1036.8 533.5L1037.3 533.8C1038.18 534.389 1038.93 535.155 1039.5 536.051C1040.07 536.946 1040.44 537.951 1040.6 539L1041.2 542.6C1041.2 542.68 1041.23 542.756 1041.29 542.812C1041.34 542.869 1041.42 542.9 1041.5 542.9C1041.7 542.9 1041.9 542.8 1041.9 542.6L1042.4 539C1042.59 537.95 1042.99 536.95 1043.57 536.057C1044.16 535.164 1044.91 534.396 1045.8 533.8L1046.3 533.5C1046.34 533.46 1046.36 533.412 1046.38 533.36C1046.4 533.309 1046.4 533.254 1046.4 533.2C1046.4 533 1046.4 532.9 1046.3 532.9L1045.8 532.6Z" fill="#91FFAD"/>
<path d="M10.1001 509C9.1381 508.35 8.32209 507.508 7.70309 506.527C7.08309 505.546 6.67309 504.447 6.50009 503.3L5.90009 499.3C5.80009 499.1 5.70009 498.9 5.50009 498.9C5.39409 498.9 5.2921 498.942 5.2171 499.017C5.1421 499.092 5.1001 499.194 5.1001 499.3L4.50009 503.3C4.30809 504.454 3.88108 505.555 3.24408 506.536C2.60708 507.517 1.77508 508.356 0.800079 509L0.200104 509.3C0.100104 509.4 0.100098 509.5 0.100098 509.7C0.100098 509.8 0.100104 510 0.200104 510L0.800079 510.4C1.78408 511.035 2.6221 511.872 3.2601 512.854C3.8971 513.837 4.32009 514.943 4.50009 516.1L5.1001 520.1C5.1001 520.3 5.30009 520.4 5.50009 520.4C5.70009 520.4 5.80009 520.3 5.90009 520.1L6.50009 516.1C6.66109 514.949 7.0661 513.846 7.6871 512.863C8.3071 511.88 9.1301 511.041 10.1001 510.4L10.7001 510C10.8001 510 10.9001 509.8 10.9001 509.7C10.9001 509.623 10.8821 509.546 10.8471 509.477C10.8121 509.407 10.7621 509.347 10.7001 509.3L10.1001 509Z" fill="#FF78B9"/>
</g>
</g>
<defs>
<clipPath id="clip0_1_1775">
<rect width="2560" height="626" fill="white" transform="translate(-320)"/>
</clipPath>
</defs>
</svg>
