<svg width="24" height="25" viewBox="0 0 24 25" fill="none" xmlns="http://www.w3.org/2000/svg">
<path d="M20.875 2.93994H3.09375C2.46875 2.93994 2 3.43994 2 4.03369V21.8149C2 22.4399 2.5 22.9086 3.09375 22.9086H12.6875V15.1587H10.0625V12.1274H12.6562V9.90868C12.6562 7.31494 14.2187 5.90869 16.5312 5.90869C17.625 5.90869 18.5937 6.00244 18.875 6.03369V8.72119H17.2812C16.0312 8.72119 15.7812 9.31494 15.7812 10.1899V12.1274H18.7812L18.4062 15.1899H15.8125V22.9399H20.9062C21.5312 22.9399 22 22.4399 22 21.8461V4.06494C22 3.40869 21.5 2.93994 20.875 2.93994Z" fill="white"/>
</svg>
