<svg width="24" height="25" viewBox="0 0 24 25" fill="none" xmlns="http://www.w3.org/2000/svg">
<path fill-rule="evenodd" clip-rule="evenodd" d="M11.9969 2.94629C9.28187 2.94629 8.94143 2.9578 7.87516 3.00645C6.81111 3.05498 6.0844 3.22399 5.44853 3.47113C4.79115 3.72656 4.23365 4.06839 3.67786 4.62414C3.1221 5.17994 2.78028 5.73744 2.52484 6.39482C2.2777 7.03069 2.10869 7.7574 2.06016 8.82145C2.01151 9.88772 2 10.2281 2 12.9432C2 15.6581 2.01151 15.9986 2.06016 17.0649C2.10869 18.1289 2.2777 18.8556 2.52484 19.4915C2.78028 20.1489 3.1221 20.7064 3.67786 21.2622C4.23365 21.8179 4.79115 22.1597 5.44853 22.4152C6.0844 22.6623 6.81111 22.8313 7.87516 22.8798C8.94143 22.9285 9.28187 22.94 11.9969 22.94C14.7118 22.94 15.0523 22.9285 16.1185 22.8798C17.1826 22.8313 17.9093 22.6623 18.5452 22.4152C19.2025 22.1597 19.76 21.8179 20.3158 21.2622C20.8716 20.7064 21.2134 20.1489 21.4689 19.4915C21.716 18.8556 21.885 18.1289 21.9335 17.0649C21.9822 15.9986 21.9937 15.6581 21.9937 12.9432C21.9937 10.2281 21.9822 9.88772 21.9335 8.82145C21.885 7.7574 21.716 7.03069 21.4689 6.39482C21.2134 5.73744 20.8716 5.17994 20.3158 4.62414C19.76 4.06839 19.2025 3.72656 18.5452 3.47113C17.9093 3.22399 17.1826 3.05498 16.1185 3.00645C15.0523 2.9578 14.7118 2.94629 11.9969 2.94629ZM11.9969 4.74752C14.6661 4.74752 14.9823 4.75772 16.0364 4.80581C17.0111 4.85026 17.5404 5.01311 17.8927 5.15002C18.3593 5.33137 18.6923 5.54799 19.0421 5.89783C19.392 6.24764 19.6086 6.58065 19.79 7.04728C19.9269 7.39954 20.0897 7.92887 20.1342 8.90355C20.1823 9.95768 20.1925 10.2739 20.1925 12.9432C20.1925 15.6124 20.1823 15.9286 20.1342 16.9827C20.0897 17.9574 19.9269 18.4868 19.79 18.839C19.6086 19.3056 19.392 19.6387 19.0421 19.9885C18.6923 20.3383 18.3593 20.5549 17.8927 20.7363C17.5404 20.8732 17.0111 21.036 16.0364 21.0805C14.9825 21.1286 14.6663 21.1388 11.9969 21.1388C9.32738 21.1388 9.01127 21.1286 7.95726 21.0805C6.98258 21.036 6.45325 20.8732 6.10099 20.7363C5.63437 20.5549 5.30135 20.3383 4.95155 19.9885C4.60175 19.6387 4.38508 19.3056 4.20373 18.839C4.06683 18.4868 3.90397 17.9574 3.85952 16.9827C3.81143 15.9286 3.80123 15.6124 3.80123 12.9432C3.80123 10.2739 3.81143 9.95768 3.85952 8.90355C3.90397 7.92887 4.06683 7.39954 4.20373 7.04728C4.38508 6.58065 4.60171 6.24764 4.95155 5.89783C5.30135 5.54799 5.63437 5.33137 6.10099 5.15002C6.45325 5.01311 6.98258 4.85026 7.95726 4.80581C9.01139 4.75772 9.32758 4.74752 11.9969 4.74752Z" fill="white"/>
<path fill-rule="evenodd" clip-rule="evenodd" d="M11.9968 16.2754C10.1564 16.2754 8.66451 14.7834 8.66451 12.9431C8.66451 11.1027 10.1564 9.6108 11.9968 9.6108C13.8372 9.6108 15.3291 11.1027 15.3291 12.9431C15.3291 14.7834 13.8372 16.2754 11.9968 16.2754ZM11.9968 7.80957C9.16161 7.80957 6.86328 10.1079 6.86328 12.9431C6.86328 15.7783 9.16161 18.0766 11.9968 18.0766C14.832 18.0766 17.1303 15.7783 17.1303 12.9431C17.1303 10.1079 14.832 7.80957 11.9968 7.80957Z" fill="white"/>
<path fill-rule="evenodd" clip-rule="evenodd" d="M18.5328 7.60688C18.5328 8.26942 17.9957 8.80648 17.3331 8.80648C16.6706 8.80648 16.1335 8.26942 16.1335 7.60688C16.1335 6.94434 16.6706 6.40723 17.3331 6.40723C17.9957 6.40723 18.5328 6.94434 18.5328 7.60688Z" fill="white"/>
</svg>
