<svg width="609" height="352" viewBox="0 0 609 352" fill="none" xmlns="http://www.w3.org/2000/svg">
<g clip-path="url(#clip0_1_221)">
<path d="M211.399 351.9H-61.9006C-73.2006 341.8 -80.1006 330.1 -79.0006 319.3C-76.7006 296 -40.0006 292.6 -4.4006 309.4L2.5994 312.9C3.7793 308.614 5.6724 304.557 8.1994 300.9C25.999 274.8 66.199 272.3 92.199 291.4C95.065 293.495 97.742 295.838 100.199 298.4C103.695 293.567 107.683 289.109 112.099 285.1C136.199 263.3 164.799 258.6 175.699 272C185.299 283.8 177.899 306.5 159.699 324.4C159.699 324.4 213.499 325.7 211.399 351.9Z" fill="#404EED"/>
<path d="M549.4 351.4C527.3 305.8 514.9 251.2 514.9 251.2L513.9 245.9L469.4 251.2V351.4H549.4Z" fill="#2835BD"/>
<path d="M539.8 351.4C520.4 311.4 509.6 263.5 509.6 263.5L507 250.1L469.7 263.5V351.4H539.8Z" fill="black"/>
<path d="M546.8 218H530.6V351.46H546.8V218Z" fill="#2835BD"/>
<path d="M546.8 235.3C544.374 236.405 541.683 236.794 539.044 236.422C536.404 236.05 533.926 234.932 531.9 233.2L530.6 232.1V226.1L546.8 223V235.3Z" fill="black"/>
<path d="M522 351.4C533.1 348.7 548.2 334 548.2 334C548.2 334 553.5 345.4 556.6 351.4H567.8C569.009 351.407 570.206 351.158 571.313 350.671C572.42 350.184 573.411 349.468 574.223 348.572C575.034 347.675 575.648 346.618 576.023 345.468C576.398 344.319 576.527 343.103 576.4 341.9C575.9 337 573.6 331.5 570.1 323.5C564.2 310.2 562.3 303.2 550.8 303.2H540.4L516.4 292.6C501 300.7 490.4 305.4 481.3 310.8C467.9 319 457.3 335.2 467.7 351.4H522Z" fill="#FFC619"/>
<path d="M353 263.5V351.4H474.8C494.2 311.4 505 263.5 505 263.5L507.9 251.2L353 263.5Z" fill="#2835BD"/>
<path d="M477.2 266.2L353 277.8V351.4H445.9C454.9 330.9 477.2 266.2 477.2 266.2Z" fill="black"/>
<path d="M460.7 344.7C470.945 328.858 479.08 311.747 484.9 293.8" stroke="black" stroke-width="2" stroke-linecap="round" stroke-linejoin="round"/>
<path d="M446.2 332.5C441.055 332.5 436.12 334.544 432.482 338.182C428.844 341.82 426.8 346.755 426.8 351.9H465.6C465.6 346.755 463.556 341.82 459.918 338.182C456.28 334.544 451.345 332.5 446.2 332.5Z" fill="#404EED"/>
<path d="M473.8 351.4C493.2 311.4 504.1 263.5 504.1 263.5L473.8 351.4Z" fill="#2835BD"/>
<path d="M511.3 351.3C511.2 351.1 504.3 333.7 500.7 322.5L500.5 321.8C498.1 314.2 496.1 308.1 496.4 302.7L494.7 303.6C494.7 309 496.6 315 499 322.3L499.2 323C502.5 333.2 508.4 348.5 509.6 351.4H511.3V351.3Z" fill="black"/>
<path d="M573.8 349C574.417 348.397 574.883 347.657 575.161 346.841C575.438 346.024 575.521 345.154 575.4 344.3C574.7 337.2 571 328.7 567.1 319.9L563.1 310.5L561.6 311.1C562.9 314.3 564.3 317.4 565.6 320.5C570.3 331.2 574.8 341.5 573.8 349Z" fill="white"/>
<path d="M540.4 322.9C538.5 330.7 535.8 340.4 532.3 351.4H511.3C511.3 351.4 504.5 333.9 500.8 322.6C497.1 311.3 494.4 303.2 498.1 295.7C501.8 288.2 507.6 287.6 516.4 292.6L515.1 306.8L521.8 325.8L524.9 315.7C531.5 311.4 539.8 313.8 540.4 322.9Z" fill="#FFC619"/>
<path d="M513.3 345.1L511.6 340.2C507.9 329.3 504.7 320 502.5 311.5C500.7 304.5 499.2 296.2 500.1 292.5C499.365 293.396 498.728 294.368 498.2 295.4C498.2 300.8 500 308.3 500.9 311.9C503.2 320.5 506.4 329.8 510.1 340.7L511.8 345.7C512.533 347.767 513.233 349.667 513.9 351.4H515.7C514.9 349.6 514.2 347.6 513.3 345.1Z" fill="white"/>
<path d="M528.5 351.4C530.8 343.7 534.1 332.4 538.4 317.8C538.43 317.695 538.438 317.585 538.423 317.477C538.409 317.368 538.373 317.264 538.316 317.17C538.26 317.077 538.185 316.995 538.096 316.932C538.008 316.868 537.907 316.823 537.8 316.8C537.703 316.752 537.596 316.727 537.488 316.727C537.379 316.727 537.272 316.752 537.175 316.801C537.078 316.849 536.994 316.92 536.929 317.006C536.864 317.093 536.82 317.194 536.8 317.3C532.4 332.2 529.1 343.7 526.8 351.4H528.5Z" fill="white"/>
<path d="M536.6 261.4C524 259.6 519.2 260.5 514.5 271.1C509.8 281.7 512.2 290.7 520 302.1C527.8 313.5 547 311.4 554.3 308.7C561.6 306 568 298.7 571.6 288.4C575.2 278.1 574.1 266.8 568.7 260.6C563.3 254.4 554.2 249.3 546 251.9C537.8 254.5 536.6 261.4 536.6 261.4Z" fill="#DE3A93"/>
<path d="M542.7 276.3L538.9 275.3" stroke="black" stroke-width="2" stroke-linecap="round" stroke-linejoin="round"/>
<path d="M542.9 277.9L539 278.4" stroke="black" stroke-width="2" stroke-linecap="round" stroke-linejoin="round"/>
<path d="M570.5 276L573.5 274" stroke="black" stroke-width="2" stroke-linecap="round" stroke-linejoin="round"/>
<path d="M570.3 277.7L573.4 277.2" stroke="black" stroke-width="2" stroke-linecap="round" stroke-linejoin="round"/>
<path d="M532.5 251.2C530.4 251.2 528.8 252.6 528.7 253.6C528.6 254.6 532.4 257.8 537.3 263.9L538.6 263.4C534 251.6 534.6 251.1 532.5 251.2Z" fill="black"/>
<path d="M542.2 260.5C538.4 262.9 534 266.2 534 266.2" stroke="black" stroke-width="2" stroke-linecap="round" stroke-linejoin="round"/>
<path d="M540.4 322.9C541.6 317.8 542.5 313.5 543 310.2C544.4 301.6 541.8 300.2 538 299.1C534.2 298 531.5 295.9 529.7 289.4C527.9 282.9 526.8 283 524.6 284.1C522.2 285.399 520.143 287.25 518.6 289.5C517.4 291.6 517.6 294 519.9 299.9C521.422 303.59 523.867 306.827 527 309.3L524.9 315.7C532.6 315.4 537.2 316.4 540.4 322.9Z" fill="#FF78B9"/>
<path d="M552.9 318.9C551.8 314 550.4 308.7 552.9 307.3C555.4 305.9 563.1 302.3 567.3 293.2C567.388 292.974 567.52 292.767 567.69 292.593C567.859 292.419 568.062 292.281 568.287 292.188C568.511 292.094 568.752 292.047 568.995 292.049C569.237 292.052 569.477 292.103 569.7 292.2H569.9C570.082 292.266 570.249 292.368 570.39 292.502C570.531 292.635 570.642 292.796 570.717 292.974C570.792 293.153 570.83 293.345 570.827 293.539C570.824 293.733 570.781 293.924 570.7 294.1C568.654 298.45 566.211 302.601 563.4 306.5C563.983 308.845 564.718 311.15 565.6 313.4C561 315.7 552.9 318.9 552.9 318.9Z" fill="#FF78B9"/>
<path d="M528.3 302.9C528.448 302.735 528.529 302.522 528.529 302.3C528.529 302.079 528.448 301.865 528.3 301.7C526.805 300.133 525.466 298.425 524.3 296.6C522.4 293.3 520.6 287.4 521.9 285.9L520.5 287.2C520.278 287.44 520.109 287.725 520.006 288.035C519.902 288.346 519.866 288.675 519.9 289C520.429 291.947 521.443 294.785 522.9 297.4C524.109 299.372 525.517 301.214 527.1 302.9L527.7 303.1L528.3 302.9Z" fill="black"/>
<path d="M527.8 309.5C530.685 309.144 533.594 309.011 536.5 309.1" stroke="black" stroke-width="2" stroke-linecap="round" stroke-linejoin="round"/>
<path d="M518.3 336.7L524.6 316.7" stroke="black" stroke-width="2" stroke-linecap="round" stroke-linejoin="round"/>
<path d="M521.8 325.8L515.7 308.3" stroke="black" stroke-width="2" stroke-linecap="round" stroke-linejoin="round"/>
<path d="M553 319.7C554.8 329.4 558.7 343 558.7 343" stroke="black" stroke-width="2" stroke-linecap="round" stroke-linejoin="round"/>
<path d="M471.9 326C468.426 326 465.094 327.38 462.637 329.837C460.18 332.294 458.8 335.626 458.8 339.1V351.9H484.9V339.1C484.9 335.643 483.534 332.326 481.099 329.872C478.663 327.418 475.357 326.027 471.9 326Z" fill="#404EED"/>
<path d="M484.9 339.1C483.211 339.087 481.535 339.408 479.971 340.046C478.406 340.683 476.984 341.624 475.784 342.814C474.585 344.004 473.633 345.419 472.984 346.979C472.334 348.538 472 350.211 472 351.9H497.7C497.7 348.505 496.351 345.25 493.951 342.849C491.551 340.449 488.295 339.1 484.9 339.1Z" fill="#404EED"/>
<path d="M525 227.5L544.7 224.4" stroke="black" stroke-width="8" stroke-linecap="round" stroke-linejoin="round"/>
<path d="M566.2 264.1L566.9 265.2" stroke="#FFA8D2" stroke-width="3" stroke-linecap="round" stroke-linejoin="round"/>
<path d="M556.3 256.8C558.889 257.576 561.278 258.907 563.3 260.7" stroke="#FFA8D2" stroke-width="3" stroke-linecap="round" stroke-linejoin="round"/>
<path d="M544.2 224.5C560.9 221.7 587.7 215.5 601.6 211.8" stroke="#2835BD" stroke-width="8" stroke-linecap="round" stroke-linejoin="round"/>
<path d="M596.6 214.5L601.9 239.1" stroke="black" stroke-width="2" stroke-linecap="round" stroke-linejoin="round"/>
<path d="M606.9 238.3V235.1H586.3V238.4C586.258 238.857 586.122 239.299 585.9 239.7C584.868 241.202 584.311 242.978 584.3 244.8V257.9C584.302 260.114 585.102 262.252 586.553 263.924C588.004 265.595 590.009 266.687 592.2 267C595.153 267.4 598.147 267.4 601.1 267C603.264 266.663 605.233 265.558 606.647 263.886C608.062 262.215 608.826 260.09 608.8 257.9V244.8C608.825 242.988 608.302 241.21 607.3 239.7C607.019 239.289 606.878 238.798 606.9 238.3Z" fill="#8CD9FF"/>
<path d="M605 239.7V235.6H588.1V239.7C588.105 240.506 587.898 241.299 587.5 242C586.702 243.18 586.284 244.576 586.3 246V257.2C586.302 259.06 586.968 260.857 588.178 262.269C589.388 263.681 591.063 264.614 592.9 264.9C595.291 265.2 597.709 265.2 600.1 264.9C601.964 264.656 603.675 263.738 604.909 262.32C606.143 260.901 606.816 259.08 606.8 257.2V246C606.791 244.593 606.412 243.214 605.7 242C605.275 241.305 605.034 240.514 605 239.7Z" fill="#5865F2"/>
<path d="M586.3 236.7C586.3 238.1 590.9 239.2 596.6 239.2C602.3 239.2 606.9 238.1 606.9 236.7L596.6 232.6L586.3 236.7Z" fill="#8CD9FF"/>
<path d="M585.7 235.9C585.612 236.05 585.555 236.217 585.532 236.39C585.51 236.563 585.522 236.738 585.569 236.906C585.615 237.074 585.695 237.231 585.804 237.367C585.912 237.504 586.047 237.617 586.2 237.7C587.9 238.7 591.9 239.4 596.6 239.4C601.3 239.4 605.3 238.7 607 237.7C607.29 237.514 607.502 237.228 607.594 236.896C607.686 236.564 607.653 236.209 607.5 235.9L596.6 214.5L585.7 235.9Z" stroke="black" stroke-width="2" stroke-linecap="round" stroke-linejoin="round"/>
<path d="M595.6 258L592.5 257.3C592.201 257.192 591.952 256.979 591.8 256.7C591.658 256.421 591.631 256.097 591.724 255.798C591.818 255.499 592.024 255.249 592.3 255.1C592.45 255.012 592.617 254.955 592.79 254.932C592.962 254.91 593.138 254.922 593.306 254.969C593.474 255.015 593.631 255.095 593.767 255.204C593.903 255.312 594.017 255.447 594.1 255.6L595.6 258Z" fill="white"/>
<path d="M595.6 258L595.4 254.9C595.394 254.753 595.418 254.607 595.469 254.47C595.521 254.332 595.599 254.207 595.7 254.1C595.785 253.97 595.9 253.861 596.034 253.783C596.169 253.704 596.32 253.659 596.475 253.649C596.63 253.639 596.786 253.666 596.929 253.727C597.072 253.788 597.199 253.881 597.3 254C597.561 254.215 597.728 254.523 597.765 254.86C597.802 255.196 597.707 255.533 597.5 255.8L595.6 258Z" fill="white"/>
<path d="M596.2 260.9C594.5 261.4 592.9 260.9 592.5 259.8C592.1 258.7 592.7 258.1 594.3 257.7C594.998 257.52 595.67 257.251 596.3 256.9C597.6 256.2 598.3 257 598.6 257.9C598.9 258.8 597.9 260.3 596.2 260.9Z" fill="#121B80"/>
<path d="M593.136 257.878L591.936 257.857C591.108 257.843 590.424 258.502 590.41 259.331L590.408 259.421C590.394 260.249 591.054 260.932 591.882 260.947L593.082 260.968C593.91 260.982 594.593 260.322 594.608 259.494L594.609 259.404C594.624 258.576 593.964 257.893 593.136 257.878Z" fill="#FFE75C"/>
<path d="M598.8 246.2L601.6 244.7C601.821 244.511 601.992 244.27 602.1 244C602.146 243.849 602.162 243.69 602.147 243.533C602.132 243.376 602.086 243.223 602.011 243.084C601.937 242.945 601.836 242.821 601.714 242.721C601.592 242.621 601.451 242.546 601.3 242.5C600.968 242.408 600.614 242.451 600.314 242.619C600.014 242.788 599.793 243.069 599.7 243.4L598.8 246.2Z" fill="white"/>
<path d="M598.8 246.2L598.3 243.1C598.193 242.8 598.023 242.527 597.8 242.3C597.524 242.153 597.206 242.103 596.898 242.157C596.59 242.211 596.309 242.367 596.1 242.6C595.908 242.907 595.843 243.276 595.917 243.631C595.992 243.985 596.201 244.297 596.5 244.5L598.8 246.2Z" fill="white"/>
<path d="M599.6 245.8C601 246.8 601.7 248.4 601 249.3C600.3 250.2 599.5 250.3 598.2 249.2C597.653 248.754 597.047 248.384 596.4 248.1C596.153 248.039 595.928 247.912 595.747 247.732C595.567 247.553 595.44 247.327 595.378 247.081C595.316 246.834 595.323 246.575 595.397 246.332C595.472 246.089 595.611 245.87 595.8 245.7C596.4 244.7 598.2 244.8 599.6 245.8Z" fill="#121B80"/>
<path d="M598.905 249.398L599.612 250.368C600.1 251.037 601.038 251.184 601.708 250.696L601.78 250.643C602.45 250.155 602.597 249.216 602.109 248.547L601.402 247.577C600.913 246.908 599.975 246.761 599.306 247.249L599.233 247.302C598.564 247.79 598.417 248.729 598.905 249.398Z" fill="#FFE75C"/>
<path d="M596.6 237.6C602.289 237.6 606.9 236.481 606.9 235.1C606.9 233.719 602.289 232.6 596.6 232.6C590.911 232.6 586.3 233.719 586.3 235.1C586.3 236.481 590.911 237.6 596.6 237.6Z" fill="#8CD9FF"/>
<path d="M607 235.1H586.3V236.52H607V235.1Z" fill="#8CD9FF"/>
<path d="M600.8 235.9C600.3 236 599.9 236.3 599.9 236.8C599.912 236.906 599.946 237.007 599.998 237.1C600.05 237.192 600.12 237.273 600.203 237.339C600.287 237.404 600.383 237.452 600.485 237.479C600.588 237.507 600.695 237.514 600.8 237.5L602.5 237.2C602.725 237.162 602.932 237.055 603.093 236.894C603.255 236.732 603.362 236.525 603.4 236.3C603.39 236.197 603.357 236.098 603.303 236.009C603.25 235.921 603.178 235.845 603.092 235.787C603.006 235.73 602.908 235.693 602.806 235.677C602.703 235.662 602.599 235.67 602.5 235.7L600.8 235.9Z" fill="white"/>
<path d="M596.6 214.5L591.3 239.1" stroke="black" stroke-width="2" stroke-linecap="round" stroke-linejoin="round"/>
<path d="M597.4 216.2L594.8 210.6" stroke="black" stroke-width="2" stroke-linecap="round" stroke-linejoin="round"/>
<path d="M596.8 216.5L597.1 210.1" stroke="black" stroke-width="2" stroke-linecap="round" stroke-linejoin="round"/>
<path d="M568.7 281.4C572 277.6 571.5 275.3 570.4 274.6C569.3 273.9 567.6 275.2 564.6 280C561.6 284.8 564.1 286.6 568.7 281.4Z" fill="white"/>
<path d="M553 281.4C550.8 276.8 547 273.5 543.5 274C540 274.5 541.4 279.7 546 283.2C550.6 286.7 555.4 286.4 553 281.4Z" fill="white"/>
<path d="M570.2 277.2C570.394 276.3 570.324 275.362 570 274.5C569.1 274.4 567.7 275.4 565.8 278.1C566 279.5 566.7 280.5 567.5 280.6C568.3 280.7 570 279.3 570.2 277.2Z" fill="black"/>
<path d="M553.1 281.7C553.1 281.6 553 281.5 553 281.4C551.933 279.083 550.32 277.058 548.3 275.5C547.723 276.643 547.48 277.925 547.6 279.2C547.8 281.9 549.2 284 550.8 283.9C551.367 283.824 551.895 283.57 552.309 283.175C552.722 282.78 552.999 282.263 553.1 281.7Z" fill="black"/>
<path d="M555 291.7C561.3 290.1 563.8 289.4 564.8 290.8C565.8 292.2 564.9 293.8 563.4 295.4C565 298.9 564.5 300.5 561.4 300.5C559.14 300.339 556.949 299.654 555 298.5" stroke="black" stroke-width="2" stroke-linecap="round" stroke-linejoin="round"/>
<path d="M561.7 293.7C561.308 294.738 560.769 295.715 560.1 296.6" stroke="black" stroke-width="2" stroke-linecap="round" stroke-linejoin="round"/>
<path d="M133.6 351.4H144L151.8 327.6H131.3L133.6 351.4Z" fill="black"/>
<path d="M264.7 351.4H209C173.2 351.4 152.6 341.1 137.2 329.4L133.6 351.4H124.5C124.5 245.8 138.1 145.6 138.1 145.6C140.1 134.3 161.6 129.2 188.3 138.5C215 147.8 222.1 159.7 221.1 170.5C220.1 181.3 211.6 254.1 208.4 288.2L214.1 294.4C216.066 296.443 217.524 298.919 218.358 301.628C219.192 304.338 219.378 307.205 218.9 310L218.3 313.3C240.3 327.5 274.3 320.4 264.7 351.4Z" fill="#29CC7A"/>
<path d="M149.2 165C148.3 177.6 148.1 182.8 148.1 184.8C148.093 185.116 148.152 185.43 148.273 185.723C148.393 186.015 148.573 186.28 148.8 186.5C154.7 192.4 161.7 194.3 167.2 195C167.518 195.042 167.841 195.017 168.149 194.927C168.457 194.836 168.742 194.683 168.987 194.476C169.232 194.268 169.431 194.012 169.571 193.724C169.711 193.435 169.789 193.121 169.8 192.8L170.9 176.8" stroke="white" stroke-width="2" stroke-miterlimit="10" stroke-linecap="round"/>
<path d="M144.8 282.3C141.487 282.37 138.214 281.578 135.3 280" stroke="black" stroke-width="4" stroke-miterlimit="10" stroke-linecap="round"/>
<path d="M136.5 286.9C140.8 287.5 146.1 285.6 146.1 285.6" stroke="black" stroke-width="4" stroke-miterlimit="10" stroke-linecap="round"/>
<path d="M195.8 215.1C194.9 224.1 194.7 234 199.2 236.6C202 238.3 207.7 238.1 214 235.1C216.5 210.2 219.2 188.8 220.5 176.7L190.7 181.6C187.8 207.3 187.3 215.7 195.8 215.1Z" fill="#15AD75"/>
<path d="M216.531 178.681C221.31 168.661 208.495 152.579 187.907 142.759C167.32 132.939 146.756 133.101 141.977 143.121C137.198 153.14 150.013 169.223 170.601 179.043C191.188 188.862 211.752 188.7 216.531 178.681Z" fill="black"/>
<path d="M137.2 329.4C152.6 341.1 173.2 351.4 209 351.4H264.7C265.648 348.523 266.187 345.527 266.3 342.5C207.2 342.5 172.9 341.3 125.3 305.7C124.9 319.9 124.6 335.2 124.5 351.4H133.6L137.2 329.4Z" fill="#57F287"/>
<path d="M141.2 279.1C143.8 289.2 150.9 296.9 157.1 296.3C163.3 295.7 163.5 289.9 161.1 280.2C160.5 277.6 160 275.1 159.5 272.5C157.7 263.3 153.2 259.3 147.7 259.8C142.2 260.3 138.5 269.1 141.2 279.1Z" fill="white"/>
<path d="M141.2 279.1C143.8 289.2 150.9 296.9 157.1 296.3C163.3 295.7 163.5 289.9 161.1 280.2C160.5 277.6 160 275.1 159.5 272.5C157.7 263.3 153.2 259.3 147.7 259.8C142.2 260.3 138.5 269.1 141.2 279.1Z" fill="white"/>
<path d="M157.5 279.2C158.5 283.6 157.8 287.5 156.1 287.8C154.4 288.1 152.3 285.8 151.6 280.3C150.9 274.8 151.3 271.8 153 271.8C154.7 271.8 156.6 274.7 157.5 279.2Z" fill="black"/>
<path d="M215.4 312.5C215.548 312.509 215.696 312.48 215.831 312.418C215.966 312.355 216.083 312.26 216.172 312.141C216.261 312.023 216.319 311.884 216.342 311.737C216.364 311.59 216.35 311.44 216.3 311.3C214.3 301.3 208.2 299.9 196.9 302.5C185.6 305.1 181.1 306.1 178.9 306.9C176.7 307.7 177.7 308.2 192.6 310.5C200.135 311.767 207.759 312.436 215.4 312.5Z" fill="#15AD75"/>
<path d="M265.8 337.4C254.7 337.5 236.2 337.3 218 336.1C184.2 333.8 153.1 321.2 125.5 298.7V300.5C153.1 322.8 184.1 335.3 217.9 337.5C234.9 338.7 252.1 338.9 263.4 338.9H266.1L265.8 337.4Z" fill="black"/>
<path d="M159.5 272.6C157.7 263.4 153.2 259.4 147.7 259.9C142.2 260.4 140.7 264.5 140.3 270.4C146.491 272.398 153.017 273.146 159.5 272.6Z" fill="#5865F2"/>
<path d="M301.4 192.3L268.1 210.9C268.67 211.427 269.387 211.767 270.156 211.875C270.925 211.982 271.708 211.851 272.4 211.5C274.3 210.7 278.9 206.5 280.7 205.5C282.5 204.5 287.6 202.5 290.1 201.5C293.183 200.279 296.078 198.629 298.7 196.6C300.9 194.8 301.7 194.1 301.4 192.3Z" fill="black"/>
<path d="M219.2 123.2C213.1 119.4 212.8 119.5 209.4 113.4C206 107.3 201.7 104.3 196.7 103.6L202.9 148.5C215.9 152.3 223.9 145.7 225.7 139.2C227.5 132.7 225.4 127 219.2 123.2Z" fill="#3442D9"/>
<path d="M213.1 129.1C211.4 121.8 206.9 113.3 201.6 106.9C199.701 104.588 198.354 101.873 197.661 98.9618C196.968 96.0509 196.947 93.0203 197.6 90.1001L199.8 80.1001C201.347 73.1595 200.522 65.9009 197.459 59.4839C194.395 53.0668 189.269 47.8617 182.9 44.7001C179.245 42.9006 175.267 41.8468 171.2 41.6001C163.547 41.0395 155.977 43.483 150.096 48.4118C144.215 53.3407 140.486 60.3671 139.7 68.0001C139.534 69.2931 139.467 70.5969 139.5 71.9001V76.2001L139.7 94.2001C139.917 102.287 138.203 110.308 134.7 117.6C133.246 120.493 132.139 123.548 131.4 126.7L180.3 178.7C203.6 174.8 218.2 152.3 213.1 129.1Z" fill="#3442D9"/>
<path d="M180.4 178.7C203.6 174.8 218.2 152.3 213.1 129.1C211.5 122.2 207.4 114.2 202.5 108" stroke="black" stroke-width="2" stroke-miterlimit="10" stroke-linecap="round"/>
<path d="M197.5 130.6C202.1 123 203.9 124 212.1 126.2C218.7 127.9 226.3 141.4 216.2 148.2C206.1 155 185.5 150.9 197.5 130.6Z" fill="#3442D9"/>
<path d="M174.703 108.187C175.625 107.482 175.773 106.129 175.035 105.163C174.297 104.198 172.952 103.987 172.031 104.691C171.11 105.396 170.961 106.749 171.699 107.714C172.437 108.68 173.782 108.891 174.703 108.187Z" fill="black"/>
<path d="M187.299 108.969C188.22 108.265 188.369 106.911 187.631 105.946C186.893 104.981 185.548 104.769 184.626 105.474C183.705 106.178 183.556 107.532 184.294 108.497C185.032 109.462 186.377 109.674 187.299 108.969Z" fill="black"/>
<path d="M186 107.4C196.7 116.2 192.3 122.5 200.9 135.5" stroke="white" stroke-width="3.00593" stroke-miterlimit="10" stroke-linecap="round"/>
<path d="M173.9 127.1C180.5 122.5 182.5 121.2 185 121.3L191.5 121.9L189.8 148.3L173.3 147.8L173.9 127.1Z" fill="#FFC619"/>
<path d="M205.9 120.4C206.025 120.051 206.066 119.677 206.022 119.309C205.978 118.941 205.849 118.588 205.646 118.278C205.442 117.968 205.17 117.709 204.85 117.522C204.529 117.335 204.17 117.225 203.8 117.2L192.8 115.6C192.002 115.515 191.198 115.707 190.525 116.144C189.851 116.581 189.348 117.236 189.1 118L182.9 141C182.776 141.35 182.734 141.723 182.778 142.091C182.822 142.459 182.951 142.812 183.154 143.122C183.358 143.432 183.63 143.691 183.951 143.878C184.271 144.065 184.63 144.175 185 144.2L196 145.8C196.799 145.885 197.602 145.693 198.276 145.256C198.949 144.819 199.452 144.164 199.7 143.4L205.9 120.4Z" fill="black"/>
<path d="M205.4 118.1L206.6 119.5L203.3 119.8L205.4 118.1Z" fill="black"/>
<path d="M210.8 133.3C209.4 131 208.1 128.1 204.3 127.5L203.8 132.3L210.8 133.3Z" fill="#FFC619"/>
<path d="M207 121.7C207.105 121.351 207.132 120.983 207.079 120.622C207.026 120.261 206.895 119.916 206.695 119.611C206.495 119.306 206.231 119.049 205.921 118.857C205.611 118.665 205.262 118.543 204.9 118.5L193.8 116.9C193.005 116.833 192.209 117.033 191.54 117.467C190.87 117.902 190.363 118.546 190.1 119.3L183.9 142.3C183.795 142.649 183.768 143.017 183.821 143.378C183.874 143.739 184.005 144.084 184.205 144.389C184.405 144.694 184.669 144.952 184.979 145.143C185.29 145.335 185.638 145.457 186 145.5L197.1 147C197.878 147.128 198.676 146.963 199.34 146.539C200.004 146.114 200.489 145.46 200.7 144.7L207 121.7Z" fill="white"/>
<path d="M203.6 130.8L208.1 131.5C209.012 131.601 209.847 132.056 210.427 132.766C211.007 133.477 211.284 134.387 211.2 135.3C211.177 135.775 211.055 136.24 210.842 136.665C210.628 137.089 210.328 137.465 209.961 137.766C209.593 138.068 209.167 138.289 208.708 138.415C208.25 138.542 207.77 138.571 207.3 138.5L204 138C202.975 137.853 202.027 137.371 201.303 136.63C200.58 135.888 200.122 134.929 200 133.9C199.975 133.442 200.056 132.984 200.236 132.562C200.416 132.14 200.691 131.765 201.038 131.465C201.386 131.166 201.798 130.95 202.242 130.835C202.686 130.72 203.151 130.708 203.6 130.8Z" fill="#FFC619"/>
<path d="M202.1 137.5L205.2 138C205.719 138.066 206.217 138.243 206.66 138.52C207.103 138.797 207.48 139.168 207.765 139.605C208.051 140.043 208.238 140.538 208.313 141.055C208.388 141.572 208.349 142.099 208.2 142.6C207.987 143.406 207.477 144.102 206.772 144.547C206.067 144.992 205.22 145.154 204.4 145L202.5 144.7C201.463 144.557 200.501 144.079 199.761 143.339C199.021 142.599 198.543 141.637 198.4 140.6C198.371 140.131 198.453 139.663 198.638 139.231C198.824 138.8 199.108 138.418 199.468 138.116C199.828 137.815 200.253 137.602 200.711 137.495C201.168 137.388 201.644 137.39 202.1 137.5Z" fill="#FFC619"/>
<path d="M192.4 148.9L181.6 147.4L182.1 143L192.9 144.6L192.4 148.9Z" fill="#FFC619"/>
<path d="M195 131.4L188.2 130.4C187.876 130.356 187.572 130.219 187.323 130.007C187.075 129.794 186.893 129.514 186.8 129.2L186.2 127.4L185.7 123.7L182 136.7L193 138.3C194.024 138.437 195.064 138.225 195.953 137.699C196.842 137.173 197.528 136.364 197.9 135.4C198.019 134.943 198.035 134.465 197.948 134.001C197.86 133.537 197.671 133.098 197.394 132.716C197.117 132.333 196.758 132.017 196.345 131.79C195.931 131.562 195.472 131.429 195 131.4Z" fill="#FFC619"/>
<path d="M192.8 138.2L182 136.7L182.5 143.9L190.8 145.1C191.813 145.251 192.846 145.043 193.722 144.514C194.598 143.985 195.262 143.166 195.6 142.2C195.737 141.75 195.77 141.275 195.697 140.81C195.623 140.345 195.444 139.904 195.175 139.518C194.905 139.133 194.551 138.814 194.139 138.585C193.728 138.357 193.27 138.225 192.8 138.2Z" fill="#FFC619"/>
<path d="M269.4 182.3C269.7 171.5 260.8 169.8 254.7 166C248.6 162.2 241.4 154.2 233.9 148.8C226.4 143.4 219.9 143.5 207.2 147.4L221.7 175.6C229.9 179.8 231.7 184.4 236.1 190.6C240.5 196.8 246.4 199.2 252.3 198.1C255.4 203.2 256 204.4 260.5 202.8C265 201.2 272.4 197.8 274.4 191.9C276.4 186 273.5 185 269.4 182.3Z" fill="#66BCFF"/>
<path d="M261.9 199.4C258.1 198.5 256.6 196.4 254.2 193.1L252.1 190.3C241.8 188.2 237.6 182.7 235.3 178.7C234.2 176.8 232.2 175.3 230.3 173.9C228.4 172.5 226.5 171 225.4 169.2C224.572 167.852 223.837 166.449 223.2 165C222.4 162.9 221.7 161.5 220.4 161.1C219.1 160.7 216.9 161.5 214.8 162.4C212.893 163.319 210.877 163.991 208.8 164.4C208.628 164.432 208.451 164.398 208.303 164.305C208.155 164.213 208.047 164.068 208 163.9C207.994 163.719 208.051 163.54 208.16 163.395C208.269 163.249 208.424 163.146 208.6 163.1C210.557 162.771 212.447 162.13 214.2 161.2C216.6 160.2 218.6 159.3 220.7 159.9C222.8 160.5 223.5 162.3 224.4 164.5C225.3 166.7 225.6 167.1 226.4 168.5C227.723 170.179 229.311 171.631 231.1 172.8C233.1 174.4 235.2 176 236.4 178.1C238.7 182.2 242.7 187.1 252.6 189.1H252.8L253 189.3C253.9 190.4 254.6 191.5 255.3 192.4C257.5 195.5 258.9 197.4 262.1 198.2C262.187 198.193 262.273 198.208 262.352 198.244C262.431 198.281 262.499 198.337 262.549 198.408C262.6 198.478 262.631 198.561 262.64 198.647C262.649 198.734 262.635 198.821 262.6 198.9C262.607 198.987 262.592 199.074 262.556 199.152C262.519 199.231 262.463 199.299 262.393 199.35C262.322 199.4 262.239 199.431 262.153 199.44C262.067 199.449 261.98 199.435 261.9 199.4Z" fill="#45AAF7"/>
<path d="M221.1 159C219.756 163.293 218.885 167.719 218.5 172.2" stroke="black" stroke-width="2" stroke-miterlimit="10" stroke-linecap="round"/>
<path d="M227 211C217.9 219.2 210.2 216.9 206.6 216.5C203 216.1 203.4 213.5 203.1 211.3C202.8 209.1 202.6 205.8 202.6 205.8C193.5 205.2 192.4 199 192.2 193.5C192 188 190.6 187.2 189.9 183.3C178.928 181.329 168.558 176.859 159.592 170.234C150.626 163.61 143.307 155.009 138.2 145.1L147.7 138.2L168.9 152C183.2 146.7 191.1 144 198.8 143.5C206.5 143 214.1 145.9 216.6 156.6C219.1 167.3 219.4 170.6 221.7 175.7C222.3 177 223.3 178.8 224.3 180.7C227.1 186.4 230 194.4 224.3 203.1C224.995 205.799 225.898 208.441 227 211Z" fill="#8CD9FF"/>
<path d="M153.7 165.3C153.4 158.2 156.1 153.2 161 152.4L148.6 143.8L139.6 147.7C141.9 154.1 147.8 161.1 153.7 165.3Z" fill="black"/>
<path d="M209.6 212.9L209.8 211.6C208 211.3 207.9 210 207.4 203.9V203.1L207 202.9C203 201.9 200.3 199.5 200.1 191.4C200.066 187.553 199.285 183.749 197.8 180.2C197.412 179.367 197.11 178.495 196.9 177.6C196.7 176.8 196.4 176 196.2 175.3C195.071 172.477 194.759 169.393 195.3 166.4C195.7 163.3 195.4 161.6 194.4 160.7C193.4 159.8 190.9 160.1 187.2 161.3H186.7C180.8 163.2 169 167.1 157.1 168.1L158.6 169.2C170.2 168.1 181.4 164.4 187.1 162.6L187.6 162.4C190.6 161.4 192.7 160.9 193.6 161.6C194.5 162.3 194.3 163.6 194 166.1C193.467 169.299 193.812 172.583 195 175.6C195.259 176.316 195.46 177.052 195.6 177.8C195.9 178.7 196.2 179.6 196.6 180.5C198.027 183.924 198.774 187.592 198.8 191.3C199 198.8 201.1 202.5 206.2 204C206.6 210.1 206.8 212.4 209.6 212.9Z" fill="#66BCFF"/>
<path d="M174.1 125.7C171.2 123.2 169 123.4 165.5 124.9C161.8 121.5 157 121 152 122.7C147 124.4 139.3 126.7 134.8 127.9C134.549 127.994 134.276 128.013 134.014 127.956C133.752 127.898 133.512 127.767 133.322 127.578C133.133 127.388 133.002 127.148 132.945 126.886C132.887 126.624 132.907 126.351 133 126.1L136.3 114.1C125.6 122.1 122.1 139.2 125.5 148.5C128.9 157.8 143.7 157.7 148.4 155.1C153.1 152.5 154.7 151.7 160.1 152.7C165.5 153.7 169.7 154.4 176.8 149L181 147.6C182.6 138.5 181.2 131.9 174.1 125.7Z" fill="#3442D9"/>
<path d="M174.1 125.7C171.2 123.2 169 123.4 165.5 124.9C161.8 121.5 157 121 152 122.7C147 124.4 139.3 126.7 134.8 127.9" stroke="black" stroke-width="2" stroke-miterlimit="10" stroke-linecap="round"/>
<path d="M165.5 124.9C168.487 127.213 170.974 130.107 172.813 133.406C174.652 136.706 175.804 140.344 176.2 144.1" stroke="black" stroke-width="2" stroke-miterlimit="10" stroke-linecap="round"/>
<path d="M195.8 121.9C195.845 121.762 195.86 121.616 195.843 121.471C195.826 121.327 195.778 121.188 195.701 121.065C195.625 120.941 195.523 120.835 195.402 120.755C195.281 120.675 195.144 120.622 195 120.6H194C193.722 120.539 193.431 120.589 193.189 120.738C192.946 120.887 192.771 121.124 192.7 121.4L191.8 124.7C191.754 124.846 191.742 125 191.765 125.151C191.788 125.302 191.845 125.445 191.931 125.571C192.018 125.696 192.133 125.8 192.266 125.875C192.399 125.949 192.548 125.992 192.7 126H193.7C193.963 126.034 194.229 125.971 194.45 125.824C194.67 125.677 194.83 125.456 194.9 125.2L195.8 121.9Z" fill="#29CC7A"/>
<path d="M179.8 102.7C180.573 101.135 181.714 99.7813 183.124 98.7538C184.535 97.7262 186.174 97.0559 187.9 96.8001C188.1 96.8001 188.2 96.6001 188.1 96.5001C186.8 91.7001 187.4 89.0001 189.1 85.5001C189.117 85.4747 189.128 85.4458 189.132 85.4156C189.136 85.3853 189.133 85.3545 189.124 85.3256C189.114 85.2966 189.098 85.2703 189.076 85.2485C189.055 85.2268 189.029 85.2102 189 85.2001C183.4 82.8001 181.3 78.8001 180.7 75.8001C180.6 75.6001 180.3 75.5001 180.2 75.7001C177.7 80.7001 174.3 80.9001 171.4 80.5001C171.2 80.5001 171.1 80.7001 171.2 80.8001C174.1 86.4001 172 90.4001 169.1 93.2001C169.085 93.2393 169.077 93.2814 169.079 93.3236C169.081 93.3658 169.092 93.407 169.111 93.4448C169.13 93.4826 169.156 93.5159 169.189 93.5427C169.221 93.5694 169.259 93.589 169.3 93.6001C174.9 94.6001 177.9 98.3001 179.3 102.6C179.4 102.8 179.7 102.9 179.8 102.7Z" fill="#FFC619"/>
<path d="M192.8 138.2L187.1 137.4" stroke="black" stroke-width="2" stroke-miterlimit="10" stroke-linecap="round"/>
<path d="M203.2 137.9L206.4 138.4" stroke="black" stroke-width="2" stroke-miterlimit="10" stroke-linecap="round"/>
<path d="M180.5 75.6001C183 70.0001 182.8 66.1001 182.1 63.9001" stroke="black" stroke-width="2" stroke-miterlimit="10" stroke-linecap="round"/>
<path d="M188.5 85.4001C190.06 85.6392 191.654 85.5397 193.172 85.1083C194.691 84.677 196.099 83.9239 197.3 82.9001" stroke="black" stroke-width="2" stroke-miterlimit="10" stroke-linecap="round"/>
<path d="M179.8 102.7C179.808 103.444 179.707 104.186 179.5 104.9" stroke="black" stroke-width="2" stroke-miterlimit="10" stroke-linecap="round"/>
<path d="M169.6 93.3002C165.9 95.9002 160.3 95.5002 156.4 94.3002" stroke="black" stroke-width="2" stroke-miterlimit="10" stroke-linecap="round"/>
<path d="M171.4 80.5002C170 77.6002 167.4 74.3002 165 73.2002" stroke="black" stroke-width="2" stroke-miterlimit="10" stroke-linecap="round"/>
<path d="M188.1 96.5001C189.39 97.1886 190.77 97.6935 192.2 98.0001" stroke="black" stroke-width="2" stroke-miterlimit="10" stroke-linecap="round"/>
<path d="M177.4 85.8002C179.1 92.4002 181.3 92.0002 182.3 90.0002C183.3 88.0002 184 85.5002 185.6 85.7002C187.2 85.9002 186.8 88.7002 184.9 92.7002C183 96.7002 179.9 97.6002 177 94.1002C174.1 90.6002 174 87.2002 173.9 84.8002C173.8 82.4002 176.3 81.8002 177.4 85.8002Z" fill="#C40655"/>
<path d="M173.4 106.6C174.6 120.4 167.6 127 165.4 140.7" stroke="white" stroke-width="3.00593" stroke-miterlimit="10" stroke-linecap="round"/>
<path d="M189.1 183.4C187.3 177.5 186.5 166.7 191.4 157.2" stroke="black" stroke-width="2" stroke-miterlimit="10" stroke-linecap="round"/>
<path d="M188 168.7C186.872 166.508 186.321 164.064 186.4 161.6" stroke="black" stroke-width="2" stroke-miterlimit="10" stroke-linecap="round"/>
<path d="M138.7 126.8L131.3 129.2" stroke="black" stroke-width="2" stroke-miterlimit="10" stroke-linecap="round"/>
<path d="M212.2 125.9L217.2 127.3" stroke="black" stroke-width="2" stroke-miterlimit="10" stroke-linecap="round"/>
<path d="M301.4 192.2C300.851 193.002 300.214 193.74 299.5 194.4C296.3 197.6 289 201.2 285.1 202.7C282.133 203.639 279.404 205.208 277.1 207.3C274.2 209.6 270.6 212.7 268.1 210.9C264.951 208.001 262.073 204.821 259.5 201.4C259.354 201.221 259.259 201.006 259.224 200.777C259.188 200.549 259.215 200.315 259.3 200.1C260.7 196.1 265.2 190.4 271.7 187.4C271.915 187.315 272.149 187.288 272.377 187.324C272.606 187.359 272.821 187.454 273 187.6C276.8 190.3 279.1 191 282.2 190.9C285.3 190.8 291.3 188.8 296.2 187.4C301.1 186 301.2 188.2 301.4 192.2Z" fill="#FFC619"/>
<path d="M262.3 204.9C264.086 207.038 266.024 209.043 268.1 210.9C270.6 212.7 274.2 209.6 277.1 207.3C279.404 205.208 282.133 203.639 285.1 202.7C289 201.2 296.3 197.6 299.5 194.4C300.214 193.74 300.851 193.002 301.4 192.2C301.2 188.2 300.3 186.2 296.2 187.4C292.1 188.6 289.8 189.6 286.8 190.3C285.908 190.539 285.099 191.021 284.463 191.691C283.828 192.362 283.39 193.196 283.2 194.1C283.1 195.2 282.9 196.3 282.7 197.6C277.3 196.5 272.1 198.3 271 205.4C271 205.4 266.4 202.9 262.3 204.9Z" fill="#FFE75C"/>
<path d="M299.5 194.4L301.4 192.3C301.527 192.089 301.596 191.847 301.6 191.6C301.508 190.842 301.305 190.101 301 189.4C300.2 190.9 298.8 192.4 295.7 194.7C290.8 198.3 285.3 199.6 282 200.7C278.979 201.826 276.222 203.562 273.9 205.8C272.075 207.862 269.67 209.325 267 210L268.1 210.9C270.6 212.7 274.2 209.6 277.1 207.3C279.404 205.208 282.133 203.639 285.1 202.7C289 201.2 296.3 197.6 299.5 194.4Z" fill="white"/>
<path d="M238.5 198.9C233.4 197.5 228.2 199.9 223.6 208.6C222.3 207.6 219.1 206.5 214.3 207.4C209.5 208.3 207.7 210.4 206.9 212C206.424 212.924 206.283 213.984 206.5 215C206.8 216.3 207.2 218 207.8 220.8C208.7 225.1 208.2 228.9 210.6 229.3L244.2 205.1C244.2 205.1 245.1 200.7 238.5 198.9Z" fill="#FFC619"/>
<path d="M238.5 198.9C233.4 197.5 228.2 199.9 223.6 208.6C222.962 209.902 222.394 211.237 221.9 212.6C216.6 212.1 214.1 214.4 213.2 219.5C213.2 219.5 209.7 217.1 207.6 219.9C207.7 220.2 207.7 220.5 207.8 220.8C208.7 225.1 208.2 228.9 210.6 229.3L244.2 205.1C244.2 205.1 245.1 200.7 238.5 198.9Z" fill="#FFE75C"/>
<path d="M244.2 203.7L241.7 201.4C237.4 200.7 233.8 200.6 230 204.9C226.2 209.2 223.7 213.9 219.7 216.7C214 220.9 209.2 222.6 208.5 225.7C207.8 228.8 209.2 229.1 210.6 229.3L244.2 205.1C244.323 204.642 244.323 204.159 244.2 203.7Z" fill="white"/>
<path d="M239.9 199.9L242.3 200.6C242.509 200.634 242.707 200.714 242.88 200.835C243.054 200.957 243.197 201.116 243.3 201.3C244.227 202.866 244.613 204.693 244.4 206.5L235.6 204.9C238.5 203.5 239.5 202.2 239.2 200.5C239.17 200.406 239.168 200.306 239.195 200.211C239.222 200.116 239.276 200.032 239.351 199.968C239.426 199.903 239.518 199.863 239.615 199.851C239.713 199.839 239.812 199.856 239.9 199.9Z" fill="white"/>
<path d="M210.8 229.4C219.4 231.1 223.2 228.4 226.9 224.6C228.435 222.902 230.222 221.452 232.2 220.3C237.3 217.4 241.3 214.3 244 209.4C246.7 204.5 238.4 201.3 233 205.8C227.6 210.3 227.3 215.6 216.6 222.2C209.3 226.8 208.3 228.9 210.8 229.4Z" fill="black"/>
<path d="M212.023 213.793C212.073 212.801 211.622 211.971 211.015 211.94C210.409 211.909 209.876 212.689 209.826 213.682C209.775 214.675 210.227 215.505 210.833 215.535C211.44 215.566 211.973 214.786 212.023 213.793Z" fill="white"/>
<path d="M301.7 191C301.524 189.986 301.187 189.007 300.7 188.1C300.6 188 300.5 187.9 300.4 188H300.3C300.1 188 300.1 188.1 300.1 188.2C300.6 190.3 300.8 192.7 299.7 194.1C302 192.3 301.8 191.3 301.7 191Z" fill="white"/>
<path d="M266.024 201.633C266.941 201.428 267.43 200.126 267.116 198.724C266.803 197.323 265.806 196.353 264.89 196.558C263.974 196.763 263.485 198.065 263.798 199.466C264.111 200.867 265.108 201.837 266.024 201.633Z" fill="white"/>
<path d="M340.999 351.4C383.299 351.4 417.999 333.8 463.599 293.6C509.199 253.4 525.199 240.2 538.099 227.7C550.999 215.2 550.099 207.1 543.399 191.1C536.699 175.1 532.299 177.4 532.299 177.4C531.499 164.4 518.799 142.9 504.799 125.6C490.799 108.3 482.399 111.1 466.999 111.1C451.599 111.1 446.499 115.3 439.599 133.7C432.699 152.1 415.499 167.7 382.999 173.4C350.499 179.1 332.699 178.8 331.799 195.1C330.899 211.4 331.799 239.5 317.399 261.7C299.498 270.352 280.679 276.96 261.299 281.4C249.899 284 247.499 291.5 246.399 301.3C245.299 311.1 249.299 316.4 251.199 319.5C247.299 323.2 248.099 324.8 249.999 333.5C250.799 337 251.699 340.5 252.499 343.6C253.151 345.853 254.518 347.833 256.394 349.24C258.27 350.647 260.554 351.405 262.899 351.4H340.999Z" fill="#66BCFF"/>
<path d="M246.399 301.3C245.299 311.1 249.299 316.4 251.199 319.5L329.499 328.5L405.299 317.4C405.299 317.4 455.299 277.1 448.499 263.7C441.699 250.3 427.399 262.9 408.299 275.9C389.199 288.9 369.399 290.1 346.699 286.8C323.999 283.5 296.499 273.8 261.299 281.4C249.899 284 247.499 291.5 246.399 301.3Z" fill="#45AAF7"/>
<path d="M456.599 257C456.699 239.7 456.099 235.6 461.899 236.4C467.699 237.2 477.199 239.1 477.199 239.1L466.899 255.4L456.599 257Z" fill="#A3E1FF"/>
<path d="M486.999 230.1C486.999 221.7 486.299 216.2 488.599 215C490.899 213.8 493.599 215.3 498.399 219.6C503.199 223.9 486.999 230.1 486.999 230.1Z" fill="#A3E1FF"/>
<path d="M256.199 317.4C254.899 307.3 255.199 299.3 257.899 297.3C260.599 295.3 263.199 299.9 265.099 303.9C267.521 308.976 270.543 313.743 274.099 318.1L256.199 317.4Z" fill="#A3E1FF"/>
<path d="M342.999 319.6C346.299 306.1 349.099 302.8 351.899 302.6C354.699 302.4 356.099 308.8 360.099 317.9L353.499 321L342.999 319.6Z" fill="#A3E1FF"/>
<path d="M522.999 196.1C480.499 237.2 455.099 259.8 419.499 286.3C383.899 312.8 367.999 319.7 338.099 319.7C308.199 319.7 288.999 302.9 251.199 319.5C247.299 323.2 248.099 324.8 249.999 333.5C250.799 337 251.699 340.5 252.499 343.6C253.151 345.853 254.518 347.833 256.394 349.24C258.27 350.647 260.554 351.405 262.899 351.4H340.999C383.299 351.4 417.999 333.8 463.599 293.6C509.199 253.4 525.199 240.2 538.099 227.7C550.999 215.2 550.099 207.1 543.399 191.1C536.699 175.1 532.299 177.4 532.299 177.4C532.299 181.9 532.599 186.7 522.999 196.1Z" fill="white"/>
<path d="M543.899 192.2C543.799 198 540.199 204.6 530.399 213.6C511.199 231.1 471.499 266.9 444.199 290.1C414.299 315.8 386.499 337 349.499 337C336.599 337 322.499 334.3 308.799 331.7C284.699 327.1 261.799 322.8 250.199 334.4C250.299 335 250.499 335.7 250.599 336.3C261.399 324.4 284.299 328.7 308.499 333.3C322.299 335.9 336.499 338.6 349.499 338.6C386.999 338.6 416.199 316.2 445.199 291.4C472.499 268.1 512.299 232.2 531.399 214.8C538.599 208.2 543.799 202.1 545.099 195.4L543.899 192.2Z" fill="#FFE75C"/>
<path d="M431.999 319L418.099 287.4C412.766 291.333 407.866 294.833 403.399 297.9L402.199 299.3C407.399 297.1 412.599 300 412.999 308.9C413.099 313.7 413.099 323.4 413.099 331.2C419.616 327.479 425.925 323.407 431.999 319Z" fill="black"/>
<path d="M268.699 343.4C260.699 343.5 256.799 346.7 259.999 349.8C261.164 350.882 262.71 351.457 264.299 351.4H332.999C298.799 351.4 295.299 343 268.699 343.4Z" fill="black"/>
<path d="M504.299 166.9C493.999 180.1 490.399 185.3 494.699 199.4C496.499 205.5 498.799 212 500.699 217.4L522.999 196.1C532.599 186.7 532.299 181.9 532.299 177.4C531.599 166.3 522.299 149 510.799 133.4C516.599 141.8 514.599 153.7 504.299 166.9Z" fill="#45AAF7"/>
<path d="M490.599 150.1C496.499 127.6 495.899 112.6 481.399 111.1C477.099 110.7 472.499 111.1 466.999 111.1C451.499 111.1 446.499 115.3 439.599 133.7C432.699 152.1 415.499 167.7 382.999 173.4C350.499 179.1 332.699 178.8 331.799 195.1C330.899 211.4 331.799 239.5 317.399 261.7C315.299 265.4 317.799 267.9 347.699 267.9C377.599 267.9 395.399 266.1 400.399 253.6C405.399 241.1 412.599 213.8 416.199 203C419.799 192.2 419.199 186 439.099 181.5C458.999 177 484.999 171.8 490.599 150.1Z" fill="#8CD9FF"/>
<path d="M421.499 178.7C437.499 172.1 448.799 173.6 465.799 165.5C482.799 157.4 484.999 151.4 487.099 140.3C489.199 129.2 490.699 116.1 480.399 115.2C470.099 114.3 460.799 114.7 456.099 116.3C451.399 117.9 450.199 120.8 445.099 131.3C439.999 141.8 437.499 157.4 414.599 167.6L421.499 178.7Z" fill="black"/>
<path d="M286.699 312.4C286.799 317.5 288.199 324.8 290.999 325.5C293.799 326.2 295.099 320.5 297.999 313.4C294.899 310.2 286.699 306.9 286.699 312.4Z" fill="#A3E1FF"/>
<path d="M414.299 289.2C411.821 289.302 409.397 289.951 407.199 291.1C397.899 295.8 397.999 299.8 398.299 301.2C410.999 293.5 416.599 302 420.199 326.9C421.599 336.7 424.099 341.5 431.299 341.5C440.099 341.5 445.299 335.3 444.699 319.3C444.564 316.281 444.23 313.275 443.699 310.3C441.199 296.9 435.999 283.4 423.399 283.4C421.509 283.494 419.677 284.078 418.081 285.095C416.485 286.112 415.182 287.527 414.299 289.2Z" fill="#FF78B9"/>
<path d="M508.199 244.1C502.799 248.9 497.399 249.3 496.199 245.1C494.999 240.9 498.299 233.5 503.699 228.8L513.099 220.5C518.499 215.7 523.899 215.3 525.099 219.5C526.299 223.7 522.899 231.1 517.599 235.8L508.199 244.1Z" fill="#FFA8D2"/>
<path d="M414.299 289.2C422.699 290.1 429.099 294 431.799 304.6C433.699 312.1 433.099 320.9 434.399 328.5" stroke="black" stroke-width="2" stroke-linecap="round" stroke-linejoin="round"/>
<path d="M509.999 169.2L507.499 172.6C499.599 182.9 496.699 186.7 505.099 213.2L506.399 212C498.499 187 501.099 183.5 508.699 173.6L511.299 170.2C517.499 161.8 519.799 153.5 519.599 146.4L517.799 143.6C518.799 150.9 516.799 160 509.999 169.2Z" fill="#5865F2"/>
<path d="M396.099 307.6C396.899 303.1 395.899 300.9 393.599 301.2C391.299 301.5 389.299 302.9 387.099 308C388.899 327.5 394.099 319.9 396.099 307.6Z" fill="#A3E1FF"/>
<path d="M478.301 118.4L494.001 116.4C496.501 116.1 497.401 110.4 498.501 103.2C499.601 96.0001 498.301 82.9001 498.301 82.9001L482.101 87.8001L478.301 118.4Z" fill="#FF78B9"/>
<path d="M521.901 78.2001C515.201 70.7001 481.201 44.5001 481.201 44.5001L473.201 56.0001C473.201 56.0001 484.501 68.5001 492.601 76.9001C476.201 78.2001 446.601 82.1001 446.601 82.1001C425.601 77.9001 416.701 75.9001 416.701 75.9001L438.301 55.4001L430.401 43.6001C430.401 43.6001 409.801 56.2001 398.201 65.3001C386.601 74.4001 384.701 85.6001 395.701 94.1001C406.701 102.6 410.401 105.2 410.401 105.2L481.301 112.5C502.101 106.7 514.501 100.4 522.001 93.9001C529.501 87.4001 528.601 85.7001 521.901 78.2001Z" fill="#FFC619"/>
<path d="M404.501 74.8C407.001 75.2 411.401 76.4001 411.401 76.4001" stroke="black" stroke-width="2" stroke-linecap="round" stroke-linejoin="round"/>
<path d="M476.901 40.9001L469.801 52.8001L477.801 61.0002C480.401 58.1002 483.001 53.0001 482.201 45.3001L476.901 40.9001Z" fill="black"/>
<path d="M430.901 92.9001C421.301 81.1001 417.901 76.0001 415.901 70.1001C414.501 65.8001 423.001 68.4001 434.001 71.7001C445.001 75.0001 443.301 78.1001 430.901 92.9001Z" fill="#FF78B9"/>
<path d="M417.101 75.6001C407.001 86.9001 406.801 100.7 407.901 120C407.901 120 390.501 137.5 393.001 152.8C395.501 168.1 419.301 174.7 446.401 174.4C468.201 174.2 470.601 169.1 472.601 158.8C473.801 152.1 474.701 144.4 475.301 138.4C475.906 132.093 477.492 125.918 480.001 120.1C493.401 89.0001 482.601 77.8001 482.601 77.8001L446.401 80.7001L417.101 75.6001Z" fill="#FF78B9"/>
<path d="M425.101 59.4001C416.601 65.7001 418.401 75.3001 430.401 88.5001L435.801 93.9001L470.701 88.2001C481.901 74.3001 479.701 65.0001 475.601 59.2001C481.301 49.8001 481.701 43.3001 481.601 37.5001C481.501 27.7001 472.601 12.3001 450.201 12.5001C438.001 12.6001 427.201 17.4001 423.301 32.9001C421.901 38.3001 421.601 47.1001 425.101 59.4001Z" fill="#FFE75C"/>
<path d="M468.301 25.2001C468.568 25.1986 468.833 25.2536 469.077 25.3613C469.322 25.469 469.541 25.6272 469.72 25.8253C469.9 26.0235 470.035 26.2573 470.118 26.5115C470.201 26.7656 470.229 27.0343 470.201 27.3001L469.001 40.8001C468.646 43.8279 467.222 46.6296 464.986 48.7011C462.749 50.7726 459.847 51.9779 456.801 52.1001H454.101C450.917 52.1303 447.831 50.9999 445.42 48.9202C443.009 46.8405 441.438 43.9539 441.001 40.8001L440.501 36.3001C440.428 35.77 440.164 35.2847 439.759 34.935C439.354 34.5853 438.836 34.3951 438.301 34.4001C437.75 34.3978 437.219 34.602 436.812 34.9722C436.405 35.3425 436.151 35.852 436.101 36.4001L435.501 43.6001C435.279 45.9795 434.187 48.1935 432.434 49.8175C430.681 51.4415 428.39 52.3611 426.001 52.4001C424.568 52.4542 423.141 52.1966 421.818 51.6451C420.495 51.0936 419.307 50.2613 418.337 49.2057C417.367 48.1502 416.638 46.8966 416.2 45.5317C415.762 44.1667 415.626 42.7229 415.801 41.3001L417.001 27.7001C417.072 27.1603 417.331 26.6631 417.734 26.2968C418.137 25.9306 418.657 25.7192 419.201 25.7001L468.301 25.2001Z" fill="black"/>
<path d="M469.601 25.7001L481.601 37.5001V39.9001L469.701 31.6001L469.601 25.7001Z" fill="black"/>
<path d="M482.601 77.7C476.972 72.383 470.344 68.2362 463.101 65.5C456.601 63.2 455.101 62.6 453.601 66.3C452.101 70 450.501 74.2 449.901 75.6C449.301 77 442.201 81.8 437.901 85.4C433.601 89 429.101 96.7 429.101 96.7L474.701 100.2L482.601 77.7Z" fill="#FF78B9"/>
<path d="M492.401 76.7001L498.301 82.9001C495.601 91.3001 493.901 101.8 492.901 113.5L469.601 115.2L482.601 77.8001L492.401 76.7001Z" fill="#FF78B9"/>
<path d="M417.101 75.6L412.801 74.8C412.141 74.7044 411.469 74.7532 410.83 74.9432C410.191 75.1331 409.601 75.4596 409.101 75.9001C404.206 80.3554 400.904 86.2912 399.701 92.8C398.401 100.4 398.801 101.2 407.601 105.9C413.501 109.1 419.601 95.1 422.901 85.6C423.284 84.5643 423.434 83.4567 423.339 82.3564C423.245 81.2561 422.909 80.1902 422.355 79.2349C421.8 78.2796 421.042 77.4585 420.134 76.8301C419.226 76.2018 418.19 75.7818 417.101 75.6Z" fill="#FF78B9"/>
<path d="M421.301 153.4C413.645 144.477 405.026 136.428 395.601 129.4L373.201 141.1L380.501 162.9C380.501 162.9 386.501 170.5 392.101 176.5C397.701 182.5 407.801 182.7 426.401 184.3C433.401 171.8 430.201 163.9 421.301 153.4Z" fill="#2835BD"/>
<path d="M384.801 162.5L386.801 152.8" stroke="black" stroke-width="2" stroke-linecap="round" stroke-linejoin="round"/>
<path d="M463.401 149.3C461.601 144.4 456.101 140.5 431.501 139.3L422.401 130.1L397.101 149.4C406.101 164.6 416.301 182.9 426.401 184.3C436.501 185.7 445.601 185 457.601 177.7C465.201 173 466.201 170.8 466.401 166.8C466.248 160.853 465.238 154.959 463.401 149.3Z" fill="#3442D9"/>
<path d="M490.601 150.1C485.001 171.8 459.001 176.9 439.101 181.5C421.101 185.6 419.901 191 417.201 200L403.601 196.4V182.4L421.501 178.7C437.501 172.1 448.801 173.6 465.801 165.5C482.801 157.4 485.001 151.4 487.101 140.3C488.401 133.8 489.401 126.4 487.801 121.3L493.501 122.1C495.001 128.9 493.701 138.5 490.601 150.1Z" fill="#8CD9FF"/>
<path d="M338.401 171.6C337.075 172.403 336.058 173.629 335.514 175.08C334.969 176.531 334.93 178.123 335.401 179.6C338.301 188.8 339.601 195.9 336.901 218.3C334.201 240.7 329.701 253.1 327.601 257.7C327.472 257.973 327.41 258.273 327.419 258.575C327.429 258.876 327.511 259.171 327.657 259.435C327.804 259.699 328.011 259.924 328.262 260.092C328.513 260.26 328.801 260.366 329.101 260.4C340.301 262.1 357.101 261.9 375.501 259.5C378.605 259.093 381.546 257.869 384.023 255.954C386.5 254.039 388.425 251.502 389.601 248.6C394.331 236.862 398.208 224.797 401.201 212.5C407.901 184.9 407.101 185.4 421.501 178.7C420.401 168.8 420.501 159.3 409.701 157.9C397.101 156.3 383.301 162.5 363.501 167.9C359.001 163.9 354.901 161.9 338.401 171.6Z" fill="#45AAF7"/>
<path d="M392.601 159.4C384.301 161.4 374.901 164.8 363.501 167.9C360.201 165 357.101 163.1 349.201 166.2C348.908 166.948 348.674 167.717 348.501 168.5C344.901 186.4 338.101 215.7 358.501 214.1C378.901 212.5 381.201 200.4 380.601 189.4C380.001 178.4 378.701 172.3 380.601 169.1C382.501 165.9 389.201 160.3 392.601 159.4Z" fill="#287CEB"/>
<path d="M410.901 184.7C409.501 173 408.601 167.4 405.401 165.2C402.201 163 401.101 163.7 396.901 164.6C392.701 165.5 387.401 167.1 380.601 169.1C367.901 172.8 352.101 177.5 346.101 177.1L344.101 176.8C345.501 175.3 354.101 172.2 359.801 170.1L363.801 168.6C363.895 168.577 363.983 168.535 364.06 168.477C364.137 168.418 364.201 168.344 364.248 168.26C364.295 168.175 364.324 168.082 364.333 167.985C364.342 167.889 364.331 167.792 364.301 167.7L363.501 167.9L362.801 167.3L359.201 168.6C345.901 173.5 342.101 175.2 342.401 177.1C342.701 179 344.201 178.6 346.001 178.7C352.201 179.1 367.501 174.6 381.101 170.6C387.801 168.6 393.601 166.9 397.201 166.2C400.801 165.5 403.101 165.5 404.501 166.5C405.901 167.5 408.101 174.5 409.401 186.3L410.901 184.7Z" fill="black"/>
<path d="M416.001 39.3001L435.001 25.5001L427.901 25.6001L416.501 33.9001L416.001 39.3001Z" fill="#5865F2"/>
<path d="M420.601 51.0001C422.238 51.9546 424.106 52.4391 426.001 52.4001C428.39 52.3611 430.681 51.4415 432.434 49.8175C434.187 48.1935 435.279 45.9795 435.501 43.6001L435.801 40.0001L420.601 51.0001Z" fill="#5865F2"/>
<path d="M468.301 25.2001H460.401L440.901 39.3001V40.8001C441.126 42.3465 441.634 43.8382 442.401 45.2001L469.501 25.7001C469.164 25.4107 468.744 25.2356 468.301 25.2001Z" fill="#5865F2"/>
<path d="M469.001 40.8L469.601 34.3L447.401 50.4001C449.451 51.5343 451.758 52.1199 454.101 52.1H456.801C459.847 51.9779 462.749 50.7726 464.986 48.701C467.222 46.6295 468.646 43.8278 469.001 40.8Z" fill="#5865F2"/>
<path d="M434.501 53.6001C437.169 53.0179 439.932 53.0179 442.601 53.6001" stroke="black" stroke-width="2" stroke-linecap="round" stroke-linejoin="round"/>
<path d="M350.701 133C350.801 133.3 350.901 133.5 351.001 133.5C351.101 133.5 351.201 133.4 351.301 133.1" fill="black"/>
<path d="M367.701 128.4C356.901 132.6 341.801 141.4 328.801 148.7C321.601 152.7 319.401 155.1 323.201 162.4C327.001 169.7 334.201 176.7 339.601 181.5C345.001 186.3 348.001 184.3 352.001 181.7L380.501 162.9L395.601 129.4C389.301 125 378.601 124.1 367.701 128.4Z" fill="#2835BD"/>
<path d="M337.201 168.1C341.801 169 341.801 169.5 347.501 165.8C353.201 162.1 381.901 144.8 384.801 142.9" stroke="#4150F2" stroke-width="2" stroke-miterlimit="10" stroke-linecap="round"/>
<path d="M409.401 117.8C404.901 114.5 401.801 114.3 377.601 112.3C353.401 110.3 342.101 107.8 339.301 112.2C336.501 116.6 339.001 127.6 341.801 135.9C344.601 144.2 346.201 146.9 350.101 147.2C354.001 147.5 390.401 148.7 397.101 149.4L400.401 155L431.501 139.3C431.501 139.3 413.801 121.1 409.401 117.8Z" fill="#3442D9"/>
<path d="M332.601 161.4C326.601 156.5 324.201 155.6 324.901 158.9C325.601 162.2 329.401 167.1 333.501 171.5C337.601 175.9 342.301 180.4 343.901 180.1C345.501 179.8 343.601 176.8 341.101 172C338.966 167.959 336.081 164.362 332.601 161.4Z" fill="black"/>
<path d="M339.201 168.7L334.201 172.2L330.101 175.1C325.201 178.7 327.201 181.6 327.601 185C328.001 188.4 326.901 190.9 324.601 190.9C322.301 190.9 318.901 181.3 316.501 176.7C314.101 172.1 306.201 168.4 302.101 164.9C300.401 163.4 300.001 160.9 302.101 160.1C301.201 158.8 300.001 155.5 303.001 154.5C306.001 153.5 310.501 159 313.001 160.7C315.501 162.4 318.601 164 320.901 163C322.482 162.296 324.018 161.494 325.501 160.6L328.901 158.5L332.601 161.4C335.112 163.533 337.331 165.987 339.201 168.7Z" fill="#FF78B9"/>
<path d="M490.601 150.1C485.001 171.8 459.001 176.9 439.101 181.5C419.201 186.1 419.801 192.1 416.201 203C412.601 213.9 405.401 241.2 400.401 253.6L466.901 214.5L494.101 162.9L490.601 150.1Z" fill="#66BCFF"/>
<path d="M413.501 237.9C411.301 245.6 409.501 251.4 408.501 255.6C407.501 259.8 412.101 259.4 417.001 258C421.901 256.6 424.001 254.5 423.201 250.2C422.401 245.9 415.901 229.2 413.501 237.9Z" fill="white"/>
<path d="M332.601 161.4L328.901 158.5C328.001 158.4 327.501 158.4 327.101 158.7C326.701 159 326.801 159.2 326.901 159.7C329.201 159.3 334.901 163.4 335.101 171.5C336.401 172.1 337.101 172.5 337.601 172.2C338.101 171.9 338.801 170.5 339.201 168.7C337.331 165.987 335.112 163.533 332.601 161.4Z" fill="black"/>
<path d="M323.801 186.5C322.801 182.7 319.401 174.9 316.501 171.8C313.601 168.7 309.001 161.4 307.501 159C306.001 156.6 302.101 153.6 301.201 156.3C301.006 157.635 301.328 158.994 302.101 160.1C300.001 160.9 300.401 163.4 302.101 164.9C306.201 168.4 313.901 171.6 316.501 176.7C319.101 181.8 320.901 189.2 323.701 190.7L324.501 190.9C325.001 190.8 324.701 189.4 323.801 186.5Z" fill="#DE3A93"/>
<path d="M438.201 6.5001C436.934 10.0718 436.794 13.9465 437.801 17.6001C437.96 18.2428 438.335 18.8115 438.863 19.2118C439.39 19.612 440.039 19.8196 440.701 19.8001H446.801C447.48 19.8032 448.152 19.6623 448.773 19.3865C449.393 19.1106 449.948 18.7063 450.401 18.2001C454.101 14.3001 460.801 13.3001 466.001 15.5001L469.101 11.0001C469.433 10.5593 469.596 10.0137 469.559 9.4629C469.522 8.91213 469.289 8.39293 468.901 8.0001C465.869 5.13476 462.251 2.9622 458.297 1.63271C454.343 0.303222 450.148 -0.151461 446.001 0.300101C444.254 0.509967 442.6 1.20074 441.223 2.29545C439.846 3.39015 438.799 4.84577 438.201 6.5001Z" fill="#FF8C19"/>
<path d="M493.301 108.8C492.901 113.5 493.701 115.1 494.801 113.2C495.574 111.494 496.048 109.667 496.201 107.8L493.301 108.8Z" fill="black"/>
<path d="M481.301 78.1001C472.701 79.2001 467.901 80.7001 463.601 82.7001" stroke="black" stroke-width="2" stroke-linecap="round" stroke-linejoin="round"/>
<path d="M498.901 84.1001L502.601 87.8001" stroke="black" stroke-width="2" stroke-linecap="round" stroke-linejoin="round"/>
<path d="M477.001 119.6C477.001 119.6 472.501 122.9 469.601 125.3" stroke="black" stroke-width="2" stroke-linecap="round" stroke-linejoin="round"/>
<path d="M437.501 93.8L436.701 105.6H431.401C431.711 101.727 432.313 97.8828 433.201 94.1C433.399 93.4543 433.703 92.8461 434.101 92.3C435.431 90.6348 436.978 89.1551 438.701 87.9001L447.901 81.0001C450.505 79.0803 452.487 76.4374 453.601 73.4001C454.901 70.0001 456.501 65.7 457.201 64.8" stroke="#F551A0" stroke-width="2" stroke-linecap="round" stroke-linejoin="round"/>
<path d="M493.201 77.5001C489.001 88.1001 484.401 106.1 487.901 114.7C488.252 115.51 488.688 116.281 489.201 117L491.201 116.8C490.444 116.015 489.834 115.101 489.401 114.1C486.201 106.4 490.201 89.8001 494.401 78.8001L493.201 77.5001Z" fill="#F551A0"/>
<path d="M400.601 101.4C401.001 101.872 401.473 102.277 402.001 102.6C403.001 90.9001 407.801 81.0001 415.201 75.2001L413.201 74.9001C406.301 80.8001 401.701 90.3001 400.601 101.4Z" fill="#F551A0"/>
<path d="M480.901 118.9L469.801 120.2" stroke="black" stroke-width="2" stroke-linecap="round" stroke-linejoin="round"/>
<path d="M466.001 161.3C462.001 164 453.501 168.1 448.101 169.3C446.752 169.577 445.378 169.711 444.001 169.7C441.835 169.781 439.683 169.331 437.731 168.39C435.779 167.448 434.087 166.045 432.801 164.3L427.601 157C423.101 150.6 417.401 142.7 413.301 137C413.201 136.8 413.201 136.7 413.101 136.6C406.901 127.9 403.601 124.1 399.001 123.4C394.401 122.7 381.101 121.5 357.801 119.7C352.001 119.3 351.101 119.4 350.001 122C349.969 122.098 349.916 122.188 349.846 122.263C349.776 122.338 349.69 122.397 349.595 122.435C349.499 122.473 349.397 122.49 349.294 122.484C349.191 122.478 349.091 122.449 349.001 122.4C348.817 122.314 348.668 122.169 348.577 121.987C348.486 121.806 348.459 121.599 348.501 121.4C350.101 117.5 352.501 117.7 357.901 118.1C371.501 119.2 394.801 121 399.301 121.8C403.801 122.6 408.701 127.7 414.401 135.7C414.401 135.8 414.501 135.9 414.601 136C418.701 141.7 424.301 149.7 428.901 156L434.101 163.4C436.901 167.3 442.001 168.9 447.701 167.7C453.401 166.5 462.701 161.7 465.801 159.5C465.917 160.094 465.984 160.696 466.001 161.3Z" fill="#5865F2"/>
<path d="M342.401 113.9C339.501 116.6 341.001 121.9 343.001 129.2C345.001 136.5 347.501 143.1 348.801 142.9C350.101 142.7 350.801 140.1 351.101 136.3C351.401 132.5 351.301 125.7 349.801 120.6C348.301 115.5 344.601 111.8 342.401 113.9Z" fill="black"/>
<path d="M351.301 133.1L343.901 132.2C340.301 131.7 336.701 131.4 333.101 131.2C332.401 135.5 330.901 141 328.801 143.2C326.701 145.4 323.001 145.3 322.601 140.3C322.201 135.3 322.501 128.2 319.201 113.4C318.001 107.9 315.801 104.6 315.001 100.4C314.201 96.2001 316.601 95.5001 318.801 95.9001C318.301 93.1001 318.501 89.5001 322.001 89.0001C325.501 88.5001 326.901 91.5001 326.901 95.4001C327.42 94.6815 328.168 94.1612 329.023 93.9249C329.877 93.6886 330.786 93.7504 331.601 94.1001C334.001 95.0001 334.501 98.0001 334.201 102.8C333.901 107.6 333.801 112.7 335.801 114.4C337.801 116.1 338.301 115.5 341.101 115.9L347.901 116.5C348.712 117.777 349.351 119.156 349.801 120.6C350.835 124.685 351.339 128.886 351.301 133.1Z" fill="#FF78B9"/>
<path d="M351.301 133.1C351.339 128.886 350.835 124.685 349.801 120.6C349.351 119.156 348.712 117.777 347.901 116.5H347.001C349.501 119.7 351.001 128.1 347.001 132.6C347.564 133.077 348.207 133.449 348.901 133.7C349.746 133.781 350.593 133.57 351.301 133.1Z" fill="black"/>
<path d="M331.701 100C332.101 95.3001 328.801 93.3001 326.901 95.4001C326.901 91.5001 325.601 88.5001 322.001 89.0001C318.401 89.5001 318.301 93.1001 318.801 95.9001C316.601 95.5001 314.201 96.3001 315.001 100.4C315.801 104.5 318.001 107.9 319.201 113.4C322.501 128.2 322.101 134.4 322.601 140.3C322.608 141.489 322.993 142.645 323.701 143.6C326.001 146 327.001 143.1 326.901 138.7C326.846 131.814 327.247 124.933 328.101 118.1C329.101 110.1 331.401 104.7 331.701 100Z" fill="#DE3A93"/>
<path d="M322.401 89.0001C325.501 88.9001 325.601 92.8001 325.501 97.1001L326.901 95.4001C326.901 91.7001 325.701 88.7001 322.401 89.0001Z" fill="#FF78B9"/>
<path d="M402.701 138.2C401.129 142.074 399.257 145.819 397.101 149.4C401.701 147.4 403.601 146.4 403.601 146.4" stroke="black" stroke-width="2" stroke-linecap="round" stroke-linejoin="round"/>
<path d="M432.401 140.2L443.001 151C451.601 152.1 453.601 153.9 455.901 156.8" stroke="black" stroke-width="2" stroke-linecap="round" stroke-linejoin="round"/>
<path d="M443.001 151L452.701 151.3" stroke="black" stroke-width="2" stroke-linecap="round" stroke-linejoin="round"/>
<path d="M416.601 252.1C415.301 255.4 413.101 257.6 411.701 257.1C410.301 256.6 410.301 255 411.701 251.9C412.304 250.642 412.806 249.338 413.201 248C414.001 245.1 415.501 244.6 416.601 245.1C417.701 245.6 418.001 248.7 416.601 252.1Z" fill="black"/>
<path d="M338.001 207.6C337.901 209.3 337.701 211.2 337.501 213.2L359.901 215.7L336.301 223.1C335.801 226.5 335.301 229.6 334.801 232.5L350.401 234.1C345.101 236 339.301 238 333.101 240.4C332.301 243.933 331.501 246.933 330.701 249.4L338.001 249.6L329.801 251.9C329.2 253.881 328.465 255.819 327.601 257.7C327.499 257.957 327.432 258.226 327.401 258.5C336.301 255.7 345.301 253.4 354.001 251.5C362.883 253.103 371.639 255.342 380.201 258.2C382.365 257.29 384.309 255.926 385.901 254.2C382.501 253 377.501 251.4 371.401 249.7L367.901 248.8C376.201 247.4 383.901 246.2 390.901 245.3C392.001 242.5 393.201 239.2 394.401 235.6C387.901 234.1 381.201 232.9 374.701 231.8C384.101 228.9 391.501 226.8 397.701 225.3C398.701 221.9 399.701 218.3 400.701 214.5L387.201 213.1L402.101 208.5L403.701 202.2L373.201 211.5L338.001 207.6ZM388.301 240C378.101 241.4 366.201 243.2 353.801 245.9C349.134 245.1 344.234 244.5 339.101 244.1C348.001 240.8 355.801 238 362.801 235.7C370.901 236.8 379.701 238.2 388.301 240ZM396.901 219.7C388.401 221.8 377.401 224.9 362.301 230C354.201 228.9 346.901 228.1 341.001 227.5L373.801 217.2L396.901 219.7Z" fill="#3F4EEB"/>
<path d="M338.401 199.7C338.301 201.6 338.301 203.7 338.101 206.1C363.701 205.3 393.001 202.2 404.001 200.9C404.601 198.3 405.201 196.1 405.801 194.2C397.901 195.2 366.001 198.9 338.401 199.7Z" fill="#3F4EEB"/>
<path d="M381.701 252.8L385.901 254.2C384.309 255.926 382.365 257.29 380.201 258.2L376.201 256.9C378.301 255.934 380.175 254.537 381.701 252.8Z" fill="black"/>
<path d="M391.101 234.9L394.401 235.6C393.201 239.2 392.001 242.5 390.901 245.3L386.501 245.9C388.368 242.382 389.908 238.7 391.101 234.9Z" fill="black"/>
<path d="M396.801 214.1L400.701 214.5C399.701 218.3 398.701 221.9 397.701 225.3L393.701 226.3C394.301 224.3 394.801 222.2 395.301 220.1C395.401 219.9 395.401 219.7 395.501 219.5C395.901 217.7 396.401 215.9 396.801 214.1Z" fill="black"/>
<path d="M399.401 203.5L403.701 202.2L402.101 208.5L397.801 209.8C398.301 207.7 398.901 205.6 399.401 203.5Z" fill="black"/>
<path d="M405.801 194.2C405.201 196.1 404.601 198.3 404.001 200.9L399.901 201.3L401.701 194.7L405.801 194.2Z" fill="black"/>
<path d="M329.801 251.9L334.801 250.5C334.101 252.7 333.401 254.8 332.601 256.9L327.401 258.5C327.432 258.226 327.499 257.957 327.601 257.7C328.465 255.819 329.2 253.881 329.801 251.9Z" fill="black"/>
<path d="M333.101 240.4L337.601 238.7C336.901 242.5 336.101 246 335.101 249.5H330.701C331.501 246.967 332.301 243.933 333.101 240.4Z" fill="black"/>
<path d="M336.301 223.1L340.001 221.9C339.601 225.8 339.101 229.4 338.601 232.9L334.801 232.5C335.301 229.6 335.801 226.5 336.301 223.1Z" fill="black"/>
<path d="M338.001 207.6L341.401 208L340.801 213.5L337.501 213.2C337.701 211.2 337.901 209.3 338.001 207.6Z" fill="black"/>
<path d="M342.201 199.6L341.601 206H338.101C338.301 203.6 338.301 201.5 338.401 199.6H342.201Z" fill="black"/>
<path d="M439.601 225L439.801 233.5C439.807 233.941 439.93 234.372 440.156 234.75C440.383 235.128 440.706 235.44 441.091 235.653C441.477 235.866 441.913 235.974 442.353 235.964C442.794 235.955 443.224 235.829 443.601 235.6C444.052 235.305 444.4 234.877 444.597 234.375C444.794 233.874 444.83 233.323 444.701 232.8L441.801 222.8L439.601 225Z" fill="white"/>
<path d="M425.001 199.4C433.001 201.9 434.601 210.4 436.301 224.8C436.335 225.154 436.464 225.493 436.673 225.781C436.882 226.07 437.164 226.297 437.49 226.439C437.816 226.582 438.174 226.635 438.528 226.593C438.881 226.551 439.217 226.415 439.501 226.2L442.301 224.1C443.034 223.576 443.609 222.86 443.962 222.031C444.315 221.202 444.432 220.292 444.301 219.4C444.001 217.6 443.501 214.8 443.001 211C441.801 203.6 436.901 194.6 427.501 193.5C426.991 193.449 426.478 193.556 426.03 193.806C425.583 194.057 425.224 194.439 425.001 194.9C424.523 196.039 424.285 197.265 424.301 198.5C424.312 198.704 424.385 198.899 424.51 199.06C424.635 199.22 424.806 199.339 425.001 199.4Z" fill="#3F4EEB"/>
</g>
<defs>
<clipPath id="clip0_1_221">
<rect width="689" height="352" fill="white" transform="translate(-80)"/>
</clipPath>
</defs>
</svg>
