<svg width="124" height="35" viewBox="0 0 124 35" fill="none" xmlns="http://www.w3.org/2000/svg">
<g clip-path="url(#clip0_1_459)">
<path d="M26.0015 7.4529C24.0021 6.53845 21.8787 5.87198 19.6623 5.5C19.3833 5.98048 19.0733 6.63144 18.8563 7.14292C16.4989 6.80193 14.1585 6.80193 11.8336 7.14292C11.6166 6.63144 11.2911 5.98048 11.0276 5.5C8.79575 5.87198 6.67235 6.53845 4.6869 7.4529C0.672601 13.3736 -0.41235 19.1548 0.130124 24.8585C2.79599 26.7959 5.36889 27.9739 7.89682 28.7489C8.51679 27.9119 9.07477 27.0129 9.55525 26.0675C8.64079 25.7265 7.77283 25.308 6.93587 24.812C7.15286 24.6571 7.36986 24.4866 7.57135 24.3161C12.6241 26.6255 18.0969 26.6255 23.0876 24.3161C23.3046 24.4866 23.5061 24.6571 23.7231 24.812C22.8861 25.308 22.0182 25.7265 21.1037 26.0675C21.5842 27.0129 22.1422 27.9119 22.7621 28.7489C25.2885 27.9739 27.8769 26.7959 30.5288 24.8585C31.1952 18.2559 29.4733 12.5212 26.0015 7.4529ZM10.2527 21.3402C8.73376 21.3402 7.49382 19.9608 7.49382 18.2714C7.49382 16.582 8.70276 15.2025 10.2527 15.2025C11.7871 15.2025 13.0425 16.582 13.0115 18.2714C13.0115 19.9608 11.7871 21.3402 10.2527 21.3402ZM20.4373 21.3402C18.9183 21.3402 17.6768 19.9608 17.6768 18.2714C17.6768 16.582 18.8873 15.2025 20.4373 15.2025C21.9717 15.2025 23.2271 16.582 23.1961 18.2714C23.1961 19.9608 21.9872 21.3402 20.4373 21.3402Z" fill="white"/>
<path d="M41.2697 10.3661H47.8585C49.4394 10.3661 50.7878 10.6141 51.8883 11.1101C52.9887 11.6061 53.8102 12.2881 54.3527 13.1715C54.8951 14.055 55.1741 15.0624 55.1741 16.2094C55.1741 17.3253 54.8952 18.3328 54.3217 19.2472C53.7482 20.1462 52.8803 20.8746 51.7178 21.4016C50.5554 21.9286 49.1139 22.1921 47.3935 22.1921H41.2697V10.3661ZM47.316 19.1852C48.3854 19.1852 49.2069 18.9217 49.7804 18.3793C50.3539 17.8523 50.6484 17.1083 50.6484 16.1939C50.6484 15.3414 50.3849 14.6594 49.8734 14.148C49.3619 13.6365 48.587 13.373 47.5485 13.373H45.4871V19.1852H47.316Z" fill="white"/>
<path d="M65.4362 22.1774C64.5217 21.9449 63.7003 21.6039 62.9718 21.1389V18.3335C63.5298 18.7675 64.2582 19.1085 65.1882 19.3875C66.1181 19.6665 67.0171 19.806 67.8851 19.806C68.288 19.806 68.598 19.7595 68.7995 19.651C69.001 19.5425 69.1095 19.4185 69.1095 19.2635C69.1095 19.093 69.0475 18.9535 68.939 18.845C68.8305 18.7365 68.6135 18.6435 68.288 18.5505L66.2576 18.1011C65.0952 17.8376 64.2737 17.4501 63.7777 16.9851C63.2818 16.5201 63.0493 15.8847 63.0493 15.1097C63.0493 14.4587 63.2663 13.8853 63.6847 13.4048C64.1187 12.9243 64.7232 12.5523 65.5137 12.2888C66.3041 12.0254 67.2186 11.8859 68.288 11.8859C69.2335 11.8859 70.1014 11.9789 70.8919 12.1959C71.6823 12.3973 72.3333 12.6608 72.8448 12.9708V15.6212C72.3178 15.3112 71.6979 15.0632 71.0159 14.8772C70.3184 14.6912 69.6055 14.5982 68.877 14.5982C67.823 14.5982 67.2961 14.7842 67.2961 15.1407C67.2961 15.3112 67.3736 15.4352 67.5441 15.5282C67.7146 15.6212 68.009 15.6987 68.443 15.7917L70.1324 16.1017C71.2329 16.2876 72.0543 16.6286 72.5968 17.1091C73.1393 17.5896 73.4028 18.287 73.4028 19.2325C73.4028 20.2555 72.9533 21.0769 72.0543 21.6659C71.1554 22.2704 69.8844 22.5648 68.2415 22.5648C67.2806 22.5338 66.3506 22.4098 65.4362 22.1774Z" fill="white"/>
<path d="M77.5891 21.8213C76.6281 21.3408 75.8842 20.7054 75.4037 19.8994C74.9077 19.0934 74.6752 18.179 74.6752 17.156C74.6752 16.1486 74.9232 15.2341 75.4347 14.4437C75.9462 13.6377 76.6901 13.0177 77.6666 12.5528C78.643 12.1033 79.821 11.8708 81.1849 11.8708C82.8743 11.8708 84.2693 12.2273 85.3852 12.9402V16.0246C84.9977 15.7611 84.5328 15.5286 84.0058 15.3736C83.4788 15.2031 82.9208 15.1256 82.3319 15.1256C81.2779 15.1256 80.472 15.3116 79.8675 15.6991C79.2785 16.0866 78.984 16.5826 78.984 17.2025C78.984 17.807 79.263 18.303 79.852 18.6905C80.4254 19.0779 81.2624 19.2794 82.3474 19.2794C82.9053 19.2794 83.4633 19.2019 84.0058 19.0314C84.5483 18.8609 85.0287 18.675 85.4162 18.427V21.4183C84.1762 22.1623 82.7348 22.5343 81.1074 22.5343C79.728 22.5343 78.5655 22.2863 77.5891 21.8213Z" fill="white"/>
<path d="M89.8041 21.8213C88.8276 21.3408 88.0837 20.7054 87.5722 19.8839C87.0607 19.0624 86.7972 18.148 86.7972 17.125C86.7972 16.1176 87.0607 15.2031 87.5722 14.4127C88.0837 13.6222 88.8276 13.0022 89.7886 12.5528C90.7495 12.1033 91.9119 11.8708 93.2464 11.8708C94.5794 11.8708 95.7418 12.0878 96.7028 12.5528C97.6637 13.0022 98.4077 13.6222 98.9192 14.4127C99.4306 15.2031 99.6786 16.1021 99.6786 17.125C99.6786 18.1325 99.4306 19.0624 98.9192 19.8839C98.4077 20.7054 97.6792 21.3563 96.7028 21.8213C95.7263 22.2863 94.5794 22.5343 93.2464 22.5343C91.9274 22.5343 90.7805 22.2863 89.8041 21.8213ZM94.9358 18.8299C95.3388 18.427 95.5558 17.869 95.5558 17.2025C95.5558 16.5206 95.3543 15.9936 94.9358 15.5906C94.5174 15.1876 93.9594 14.9861 93.2619 14.9861C92.5335 14.9861 91.9739 15.1876 91.5555 15.5906C91.1525 15.9936 90.9355 16.5206 90.9355 17.2025C90.9355 17.8845 91.137 18.427 91.5555 18.8299C91.9739 19.2484 92.5335 19.4499 93.2619 19.4499C93.9594 19.4344 94.5329 19.2329 94.9358 18.8299Z" fill="white"/>
<path d="M110.048 12.4901V16.1325C109.614 15.8535 109.056 15.714 108.374 15.714C107.475 15.714 106.777 15.993 106.297 16.5354C105.816 17.0779 105.568 17.9304 105.568 19.0773V22.1772H101.43V12.3196H105.491V15.466C105.708 14.319 106.08 13.4666 106.576 12.9241C107.072 12.3816 107.723 12.0872 108.513 12.0872C109.102 12.0872 109.614 12.2267 110.048 12.4901Z" fill="white"/>
<path d="M124 10.0256V22.1925H119.862V19.9761C119.505 20.8131 118.978 21.4486 118.265 21.8825C117.551 22.3165 116.667 22.5335 115.613 22.5335C114.683 22.5335 113.862 22.301 113.164 21.8515C112.467 21.4021 111.925 20.7666 111.553 19.9761C111.181 19.1702 110.995 18.2712 110.995 17.2793C110.979 16.2408 111.181 15.3109 111.599 14.4894C112.002 13.668 112.591 13.0325 113.335 12.5675C114.079 12.1025 114.931 11.87 115.892 11.87C117.861 11.87 119.18 12.7225 119.862 14.4429V10.0256H124ZM119.242 18.7517C119.66 18.3487 119.877 17.8062 119.877 17.1553C119.877 16.5198 119.676 16.0083 119.257 15.6209C118.839 15.2334 118.281 15.0319 117.582 15.0319C116.884 15.0319 116.326 15.2334 115.908 15.6364C115.489 16.0393 115.288 16.5508 115.288 17.2018C115.288 17.8527 115.489 18.3642 115.908 18.7672C116.326 19.1702 116.869 19.3717 117.566 19.3717C118.265 19.3717 118.823 19.1702 119.242 18.7517Z" fill="white"/>
<path d="M58.9885 12.9091C60.1772 12.9091 61.1429 12.0416 61.1429 10.9717C61.1429 9.90164 60.1772 9.0343 58.9885 9.0343C57.7981 9.0343 56.8341 9.90164 56.8341 10.9717C56.8341 12.0416 57.7981 12.9091 58.9885 12.9091Z" fill="white"/>
<path d="M61.1429 14.241C59.8254 14.8144 58.1825 14.8299 56.8341 14.241V22.1921H61.1429V14.241Z" fill="white"/>
</g>
<defs>
<clipPath id="clip0_1_459">
<rect width="124" height="34" fill="white" transform="translate(0 0.5)"/>
</clipPath>
</defs>
</svg>
