<svg width="24" height="25" viewBox="0 0 24 25" fill="none" xmlns="http://www.w3.org/2000/svg">
<path d="M17.836 6.94894C17.1685 6.51426 16.6198 5.9201 16.2395 5.22015C15.8592 4.5202 15.6594 3.73652 15.658 2.93994H12.219L12.214 16.7199C12.1856 17.4665 11.8693 18.1731 11.3315 18.6917C10.7937 19.2103 10.0761 19.5007 9.329 19.5019C8.56277 19.5011 7.82815 19.1964 7.28634 18.6546C6.74453 18.1128 6.43979 17.3782 6.439 16.6119C6.44006 15.8458 6.74488 15.1113 7.28663 14.5696C7.82838 14.0278 8.56285 13.723 9.329 13.7219C9.627 13.7219 9.912 13.7699 10.182 13.8549V10.3449C9.8994 10.305 9.61441 10.2843 9.329 10.2829C7.65101 10.2848 6.04228 10.9522 4.85577 12.1387C3.66925 13.3252 3.00185 14.934 3 16.6119C3.00049 17.6292 3.24635 18.6313 3.71674 19.5332C4.18712 20.4352 4.86814 21.2103 5.702 21.7929C6.76364 22.5405 8.03059 22.9411 9.329 22.9399C11.007 22.9381 12.6157 22.2707 13.8022 21.0842C14.9887 19.8977 15.6561 18.2889 15.658 16.6109V9.62294C17.006 10.5909 18.658 11.1619 20.442 11.1619V7.72294C19.482 7.72294 18.587 7.43794 17.837 6.94794L17.836 6.94894Z" fill="white"/>
</svg>
