<svg width="24" height="25" viewBox="0 0 24 25" fill="none" xmlns="http://www.w3.org/2000/svg">
<path d="M8.2177 21.2375C15.798 21.2375 19.9327 14.9728 19.9327 9.52255V8.99005C20.7362 8.40085 21.435 7.68083 22 6.86006C21.2567 7.20229 20.4637 7.42431 19.6507 7.51785C20.5139 7.00158 21.1597 6.18879 21.4675 5.23124C20.6598 5.70177 19.7822 6.04015 18.8677 6.23359C17.3053 4.58485 14.7069 4.50103 13.0415 6.04565C11.9701 7.04216 11.5157 8.53688 11.8512 9.96108C8.54594 9.79766 5.46574 8.23763 3.37823 5.66977C2.28095 7.54783 2.84519 9.95616 4.66249 11.1513C4.00661 11.1257 3.36464 10.9545 2.78309 10.6502V10.7128C2.78257 12.6692 4.15628 14.3569 6.07204 14.7535C5.46884 14.915 4.83671 14.9364 4.22396 14.8162C4.76475 16.4937 6.31437 17.6402 8.07674 17.6666C6.62377 18.8148 4.82287 19.4335 2.97103 19.4207C2.65779 19.4207 2.31323 19.3894 2 19.3581C3.84433 20.5912 6.0148 21.2456 8.23336 21.2375" fill="white"/>
</svg>
