<svg width="24" height="25" viewBox="0 0 24 25" fill="none" xmlns="http://www.w3.org/2000/svg">
<path fill-rule="evenodd" clip-rule="evenodd" d="M21.3766 5.04485C22.4093 5.32263 23.2225 6.14108 23.4985 7.18044C24 9.06417 24 12.9946 24 12.9946C24 12.9946 24 16.9249 23.4985 18.8089C23.2225 19.8481 22.4093 20.6666 21.3766 20.9445C19.505 21.4492 12 21.4492 12 21.4492C12 21.4492 4.49496 21.4492 2.62336 20.9445C1.59082 20.6666 0.777545 19.8481 0.501545 18.8089C0 16.9249 0 12.9946 0 12.9946C0 12.9946 0 9.06417 0.501545 7.18044C0.777545 6.14108 1.59082 5.32263 2.62336 5.04485C4.49496 4.54004 12 4.54004 12 4.54004C12 4.54004 19.505 4.54004 21.3766 5.04485ZM15.8182 12.9947L9.54551 16.5631V9.42602L15.8182 12.9947Z" fill="white"/>
</svg>
